<svg width="35" height="35" viewBox="0 0 35 35" fill="none" xmlns="http://www.w3.org/2000/svg">
<path d="M17.4348 20.299C17.4348 20.299 28.4398 19.7832 29.2812 14.8729C30.1245 9.96263 24.8281 1.26677 14.0776 2.26681C14.0776 2.26681 20.4187 10.9762 17.4348 20.299Z" fill="#4F4F4F"/>
<path d="M13.1949 2.26465C12.4817 15.5382 6.85382 21.407 6.85382 21.407L15.4479 20.2968C16.4342 11.365 13.1949 2.26465 13.1949 2.26465Z" fill="#4F4F4F"/>
<path d="M18.1475 27.3686C9.57659 25.3572 4.11682 28.9911 4.11682 29.4675C4.11682 29.9462 7.86501 28.3034 17.1649 30.6844C23.6555 32.3463 30.9253 28.7327 30.9253 28C30.9253 27.2652 26.4908 29.3237 18.1475 27.3686Z" fill="#4F4F4F"/>
<path d="M10.5234 32.2939C5.4342 31.0995 2.1875 33.258 2.1875 33.5412C2.1875 33.8255 4.41264 32.8479 9.9402 34.2637C13.7952 35.2502 18.1164 33.1041 18.1164 32.6692C18.1164 32.2333 15.4826 33.4558 10.5234 32.2939Z" fill="#4F4F4F"/>
<path d="M26.2635 32.5931C21.8448 31.5571 19.0281 33.4302 19.0281 33.6752C19.0281 33.9224 20.9635 33.0751 25.7574 34.3033C29.1025 35.1606 32.8535 33.2976 32.8535 32.919C32.8535 32.5403 30.5661 33.601 26.2635 32.5931Z" fill="#4F4F4F"/>
<path d="M12.2013 25.9514C18.5972 25.7514 17.5487 26.8773 24.9903 27.3144C24.9903 27.3144 26.4484 27.3919 28.2574 27.2121C29.8669 25.9166 31.4299 23.8626 31.753 20.6748L4.01215 23.7738C4.01215 23.7738 4.18024 25.8885 5.50827 27.502C6.73321 26.8121 8.81997 26.0559 12.2013 25.9514Z" fill="#4F4F4F"/>
</svg>
