<svg width="35" height="35" viewBox="0 0 35 35" fill="none" xmlns="http://www.w3.org/2000/svg">
<g clip-path="url(#clip0_896_28749)">
<path fill-rule="evenodd" clip-rule="evenodd" d="M6.94223 1.94434H28.0578C28.0578 7.28949 28.5576 8.41479 33.0556 9.8214L32.9306 11.7907C32.4308 17.8391 30.5567 24.0283 26.9333 28.8108C24.6843 31.7647 21.1859 34.9999 17.5625 34.9999C13.8142 34.9999 10.3157 31.7647 8.06672 28.8108C4.44334 24.0283 2.56918 17.8391 2.0694 11.7907L1.94446 9.8214C6.44245 8.41479 6.94223 7.28949 6.94223 1.94434ZM17.5625 18.6831V32.6086C13.8142 32.7493 8.06672 27.9668 5.31795 18.6831H17.5625ZM29.6821 18.6831H17.5625V4.19493H26.0587C26.0587 7.71148 28.0578 10.6654 30.9315 11.5093C30.6816 14.1819 30.3068 16.5732 29.6821 18.6831Z" fill="#4F4F4F"/>
</g>
<defs>
<clipPath id="clip0_896_28749">
<rect width="35" height="35" fill="white"/>
</clipPath>
</defs>
</svg>
