<svg width="35" height="35" viewBox="0 0 35 35" fill="none" xmlns="http://www.w3.org/2000/svg">
<path d="M28.2251 18.8355C28.1718 18.7737 28.0603 18.782 28.0166 18.8479L25.8838 21.9918C25.8353 22.0618 25.8983 22.1525 25.9952 22.1525H27.6531C26.5866 25.0739 22.4954 27.542 19.8486 28.877L19.0488 12.0286H24.667C24.7349 12.0286 24.7931 11.9791 24.7931 11.9214V9.75821C24.7931 9.70052 24.7349 9.65108 24.667 9.65108H18.9325L18.7919 6.64728C20.6097 6.11574 21.8506 4.52526 21.4386 2.73699C21.1381 1.42669 19.9068 0.359495 18.3701 0.0793054C15.767 -0.390424 13.4596 1.29071 13.4596 3.4251C13.4596 4.92082 14.5988 6.17755 16.1694 6.64728L16.0288 9.6552H10.3088C10.2409 9.6552 10.1827 9.70464 10.1827 9.76233V11.9256C10.1827 11.9832 10.2409 12.0327 10.3088 12.0327H15.9173L15.1223 28.8688C12.4756 27.5255 8.40857 25.0697 7.33727 22.1566H8.99027C9.08722 22.1566 9.15023 22.0659 9.10176 21.9959L6.96886 18.852C6.92524 18.7861 6.81375 18.7778 6.76042 18.8396L3.91495 21.9835C3.85193 22.0536 3.9101 22.1566 4.01675 22.1566H5.66974C5.71821 25.6919 9.75132 28.8317 13.0961 30.8342C13.1736 30.8796 13.3772 30.9867 13.6632 31.1598C15.6846 32.4 16.8335 33.8998 17.5024 35C18.1811 33.8875 19.3493 32.3876 21.3853 31.1433C21.6567 30.9785 21.8458 30.8754 21.9234 30.8342C25.2681 28.8358 29.2964 25.6961 29.34 22.1566H30.9833C31.0899 22.1566 31.1481 22.0536 31.0851 21.9835L28.2251 18.8355ZM17.0662 4.81369C16.4748 4.69007 15.99 4.27803 15.8495 3.77946C15.5441 2.71226 16.6541 1.76868 17.9096 2.02827C18.501 2.15188 18.9858 2.56393 19.1264 3.06662C19.4317 4.13381 18.3217 5.07327 17.0662 4.81369Z" fill="#4F4F4F"/>
</svg>
