<svg width="35" height="35" viewBox="0 0 35 35" fill="none" xmlns="http://www.w3.org/2000/svg">
<path d="M7.78723 12.3644V9.53917C7.78723 9.22713 8.07713 8.97412 8.43538 8.97412H16.2132C16.5714 8.97412 16.8613 9.22713 16.8613 9.53917V12.3644H18.1576V9.53917C18.1576 9.22713 18.4475 8.97412 18.8058 8.97412H26.5835C26.9418 8.97412 27.2317 9.22713 27.2317 9.53917V12.3644H29.1768C29.4035 12.3644 29.6208 12.4009 29.8249 12.4633V4.45372C29.8249 4.14295 29.5333 3.88867 29.1768 3.88867H5.84346C5.48695 3.88867 5.19531 4.14295 5.19531 4.45372V12.464C5.39996 12.4013 5.61765 12.3644 5.84342 12.3644H7.78723Z" fill="#4F4F4F"/>
<path d="M33.0491 21.3852C33.0491 21.323 33.0361 21.2609 33.0102 21.2044L33.0037 21.1931C33.0037 21.1931 33.0037 21.1874 33.0037 21.1817L29.7695 13.8587C29.6722 13.6383 29.4324 13.4971 29.1667 13.4971H5.83335C5.5611 13.4971 5.32128 13.6383 5.23057 13.8587L2.00277 21.1817C1.99628 21.1874 1.99628 21.1931 1.98983 21.1987V21.2044C1.96388 21.2609 1.95091 21.323 1.95091 21.3795C1.95091 21.3908 1.94446 21.3965 1.94446 21.4078V21.4756H33.0556V21.4078C33.0556 21.4021 33.0491 21.3908 33.0491 21.3852Z" fill="#4F4F4F"/>
<path d="M1.94446 30.4464C1.94446 30.7572 2.23609 31.0115 2.59261 31.0115C2.94908 31.0115 3.24075 30.7572 3.24075 30.4464V27.0561H31.7593V30.4464C31.7593 30.7572 32.0509 31.0115 32.4074 31.0115C32.7639 31.0115 33.0556 30.7572 33.0556 30.4464V22.6035H1.94446V30.4464Z" fill="#4F4F4F"/>
</svg>
