<svg width="35" height="35" viewBox="0 0 35 35" fill="none" xmlns="http://www.w3.org/2000/svg">
<path d="M25.5163 13.8006C25.5163 13.6132 25.4577 13.4305 25.3488 13.2784C25.2399 13.1264 25.0862 13.0126 24.9095 12.9533C22.5052 12.1409 20.3207 10.7792 18.5273 8.97509C16.7338 7.17096 15.3802 4.97342 14.5726 2.55481C14.5136 2.37703 14.4006 2.22241 14.2494 2.11285C14.0983 2.00329 13.9167 1.94434 13.7304 1.94434C13.5441 1.94434 13.3625 2.00329 13.2113 2.11285C13.0602 2.22241 12.9471 2.37703 12.8881 2.55481C12.0804 4.97344 10.7268 7.171 8.93342 8.97519C7.14001 10.7794 4.95555 12.1412 2.5513 12.9538C2.37458 13.0131 2.22088 13.1268 2.11197 13.2789C2.00306 13.4309 1.94446 13.6136 1.94446 13.801C1.94446 13.9884 2.00306 14.1711 2.11197 14.3231C2.22088 14.4752 2.37458 14.5889 2.5513 14.6483C4.95557 15.4607 7.14006 16.8224 8.93348 18.6266C10.7269 20.4307 12.0805 22.6282 12.8881 25.0469C12.9471 25.2246 13.0602 25.3792 13.2113 25.4888C13.3625 25.5984 13.5441 25.6573 13.7304 25.6573C13.9167 25.6573 14.0983 25.5984 14.2494 25.4888C14.4006 25.3792 14.5136 25.2246 14.5726 25.0469C15.3803 22.6282 16.7339 20.4306 18.5273 18.6264C20.3207 16.8222 22.5052 15.4604 24.9095 14.6478C25.0862 14.5885 25.2398 14.4747 25.3487 14.3227C25.4576 14.1707 25.5163 13.988 25.5163 13.8006ZM13.7304 22.3887C11.9352 18.635 8.925 15.6067 5.1937 13.8006C8.92523 11.9951 11.9356 8.96681 13.7304 5.21301C15.5257 8.96658 18.5358 11.9949 22.2671 13.8011C18.5355 15.6066 15.5252 18.6349 13.7304 22.3887Z" fill="#4F4F4F"/>
<path d="M32.4319 25.788C31.2585 25.3913 30.1922 24.7266 29.3169 23.846C28.4416 22.9653 27.7809 21.8927 27.3867 20.7121C27.3258 20.5286 27.2091 20.369 27.053 20.2559C26.8969 20.1428 26.7095 20.082 26.5171 20.082C26.3248 20.0821 26.1374 20.143 25.9814 20.2562C25.8254 20.3693 25.7087 20.529 25.6479 20.7126C25.2537 21.8931 24.593 22.9656 23.7176 23.8462C22.8423 24.7268 21.7761 25.3914 20.6026 25.788C20.4202 25.8492 20.2615 25.9666 20.1491 26.1236C20.0366 26.2806 19.9761 26.4691 19.9761 26.6626C19.9761 26.856 20.0366 27.0446 20.1491 27.2016C20.2615 27.3585 20.4202 27.4759 20.6026 27.5371C21.7761 27.9337 22.8424 28.5983 23.7177 29.4789C24.5931 30.3595 25.2538 31.4321 25.6479 32.6126C25.7088 32.7961 25.8255 32.9557 25.9815 33.0688C26.1376 33.1819 26.325 33.2427 26.5173 33.2427C26.7096 33.2427 26.897 33.1819 27.0531 33.0688C27.2091 32.9557 27.3258 32.7961 27.3867 32.6126C27.7809 31.4321 28.4416 30.3595 29.3169 29.4789C30.1923 28.5984 31.2585 27.9337 32.4319 27.5371C32.6144 27.4759 32.773 27.3585 32.8855 27.2016C32.9979 27.0446 33.0584 26.856 33.0584 26.6626C33.0584 26.4691 32.9979 26.2806 32.8855 26.1236C32.773 25.9666 32.6144 25.8492 32.4319 25.788ZM26.5173 30.1203C25.6753 28.698 24.4939 27.5096 23.08 26.6626C24.4936 25.815 25.6749 24.6265 26.5173 23.2044C27.3598 24.6265 28.5412 25.815 29.9549 26.6626C28.5412 27.5098 27.3597 28.6982 26.5173 30.1203Z" fill="#4F4F4F"/>
</svg>
