<svg width="35" height="35" viewBox="0 0 35 35" fill="none" xmlns="http://www.w3.org/2000/svg">
<g clip-path="url(#clip0_896_28767)">
<path d="M0 18.2603C0 27.701 7.55654 35.3566 16.8846 35.3566V31.237C9.80698 31.237 4.06858 25.4267 4.06858 18.2603C4.06858 11.094 9.80698 5.28364 16.8846 5.28364V1.16406C7.55654 1.16835 0 8.81961 0 18.2603Z" fill="#4F4F4F"/>
<path d="M6.44287 18.2597C6.44287 24.1001 11.1175 28.8333 16.8856 28.8333V7.69043C11.1175 7.69043 6.44287 12.4237 6.44287 18.2597Z" fill="#4F4F4F"/>
<path d="M24.3655 1.09375C23.9756 1.09375 23.6577 1.39843 23.6577 1.77606V8.14424C23.6577 8.35451 23.4797 8.52616 23.2594 8.52616C23.039 8.52616 22.861 8.35451 22.861 8.14424V1.77606C22.861 1.39843 22.5431 1.09375 22.1532 1.09375H22.0727C21.6828 1.09375 21.3649 1.39843 21.3649 1.77606V8.14424C21.3649 8.35451 21.1869 8.52616 20.9665 8.52616C20.7462 8.52616 20.5682 8.35451 20.5682 8.14424V1.77606C20.5682 1.39843 20.2503 1.09375 19.8604 1.09375C19.4959 1.09375 19.1908 1.35981 19.1569 1.71169L18.5254 8.19144C18.5254 9.71483 19.551 11.0065 20.975 11.4656L20.0808 33.2479C20.0342 34.3593 20.9581 35.2863 22.1151 35.2863C23.2721 35.2863 24.196 34.3593 24.1494 33.2479L23.2551 11.4656C24.6791 11.0065 25.7047 9.71483 25.7047 8.19144L25.0733 1.71169C25.0351 1.35981 24.73 1.09375 24.3655 1.09375Z" fill="#4F4F4F"/>
<path d="M33.8919 16.3416C32.8747 9.52284 31.6584 3.11175 28.0814 1.25365C28.0263 1.2279 27.967 1.2279 27.967 1.28798V10.9304L27.2338 33.7983C27.1999 34.6094 27.9204 35.2831 28.8231 35.2831C29.7258 35.2831 30.4463 34.6094 30.4124 33.7983L29.8275 21.2036C29.6283 18.4786 31.7983 18.1611 32.7688 18.0323C33.5486 17.9251 34.0063 17.1226 33.8919 16.3416Z" fill="#4F4F4F"/>
</g>
<defs>
<clipPath id="clip0_896_28767">
<rect width="35" height="35" fill="white"/>
</clipPath>
</defs>
</svg>
