<svg width="35" height="35" viewBox="0 0 35 35" fill="none" xmlns="http://www.w3.org/2000/svg">
<path d="M11.5986 30.4192L6.14037 27.7519C4.9805 27.1751 4.50291 25.7333 5.04873 24.5078C5.66278 23.2822 7.02733 22.8497 8.11898 23.4985C10.7116 25.0124 12.9631 26.3821 15.5558 27.896C11.8715 30.275 11.8715 30.2029 11.5986 30.4192Z" fill="#4F4F4F"/>
<path d="M28.7207 24.5839C29.3347 25.8095 28.7889 27.2513 27.629 27.828C22.3755 30.3512 15.348 33.8116 15.4163 33.8116C15.0751 33.8837 12.8236 35.758 11.8684 33.6674C11.1861 32.2256 12.346 31.5047 12.8918 31.1442C23.3989 24.9444 25.7187 23.5747 25.6504 23.5747C26.7421 22.9259 28.1749 23.3584 28.7207 24.5839Z" fill="#4F4F4F"/>
<path d="M12.9609 4.83008C12.9609 2.16272 15.0077 0 17.5321 0C20.0565 0 22.1034 2.16272 22.1034 4.83008C22.1034 7.49744 20.0565 9.66016 17.5321 9.66016C15.0077 9.66016 12.9609 7.49744 12.9609 4.83008Z" fill="#4F4F4F"/>
<path d="M30.7003 21.9872C30.3591 22.636 29.5404 22.8523 28.9946 22.4918L27.2889 21.4826C24.1504 19.6803 23.6728 17.0129 22.6494 15.2107C22.4447 18.0943 22.5129 20.7616 22.7858 23.7895L17.5323 26.8894C17.1229 26.8894 16.7136 26.8894 16.3042 26.8173L12.2105 24.5104C12.5517 21.2663 12.6199 18.3827 12.4152 15.2828C11.3236 17.3013 10.9142 20.3291 6.07004 22.5639C5.52422 22.8523 4.70549 22.7081 4.36435 22.0593C4.02321 21.4105 4.22789 20.6175 4.84194 20.257C12.0741 14.9223 9.75434 11.1015 12.8928 11.1015C18.9651 11.3899 23.0588 10.4527 23.6728 11.8224C26.1972 17.0129 26.4019 18.1664 28.3805 19.2477L30.0862 20.257C30.7685 20.6175 30.9732 21.4105 30.7003 21.9872Z" fill="#4F4F4F"/>
<path d="M21.9666 32.082C22.1713 32.5867 22.2395 33.1634 21.9666 33.668C21.5572 34.5331 20.5338 34.8215 19.7833 34.461L18.4188 33.8122L21.9666 32.082Z" fill="#4F4F4F"/>
</svg>
