<svg width="67" height="50" viewBox="0 0 67 50" fill="none" xmlns="http://www.w3.org/2000/svg">
<mask id="path-1-outside-1_606_19668" maskUnits="userSpaceOnUse" x="-1" y="-1" width="69" height="52" fill="black">
<rect fill="white" x="-1" y="-1" width="69" height="52"/>
<path d="M30.28 0.959995L20.2 34.68L16.24 19.56C20.96 19.56 24.76 20.88 27.64 23.52C30.6 26.16 32.08 29.84 32.08 34.56C32.08 39.2 30.56 42.92 27.52 45.72C24.56 48.52 20.8 49.92 16.24 49.92C11.68 49.92 7.88 48.52 4.84 45.72C1.88 42.92 0.4 39.2 0.4 34.56C0.4 33.28 0.48 32 0.64 30.72C0.88 29.44 1.32 27.88 1.96 26.04C2.68 24.2 3.72 21.8 5.08 18.84L13.48 0.959995H30.28ZM65.08 0.959995L55 34.68L51.04 19.56C55.76 19.56 59.56 20.88 62.44 23.52C65.4 26.16 66.88 29.84 66.88 34.56C66.88 39.2 65.36 42.92 62.32 45.72C59.36 48.52 55.6 49.92 51.04 49.92C46.48 49.92 42.68 48.52 39.64 45.72C36.68 42.92 35.2 39.2 35.2 34.56C35.2 33.28 35.28 32 35.44 30.72C35.68 29.44 36.12 27.88 36.76 26.04C37.48 24.2 38.52 21.8 39.88 18.84L48.28 0.959995H65.08Z"/>
</mask>
<path d="M30.28 0.959995L31.2381 1.2464L31.6227 -0.0400047H30.28V0.959995ZM20.2 34.68L19.2326 34.9334L20.1364 38.3842L21.1581 34.9664L20.2 34.68ZM16.24 19.56V18.56H14.9444L15.2726 19.8134L16.24 19.56ZM27.64 23.52L26.9642 24.2572L26.9744 24.2663L27.64 23.52ZM27.52 45.72L26.8425 44.9844L26.8328 44.9935L27.52 45.72ZM4.84 45.72L4.15274 46.4465L4.16252 46.4555L4.84 45.72ZM0.64 30.72L-0.342872 30.5357L-0.348494 30.5657L-0.352278 30.596L0.64 30.72ZM1.96 26.04L1.02876 25.6756L1.02179 25.6934L1.0155 25.7115L1.96 26.04ZM5.08 18.84L4.17487 18.4148L4.17132 18.4225L5.08 18.84ZM13.48 0.959995V-0.0400047H12.8449L12.5749 0.534782L13.48 0.959995ZM65.08 0.959995L66.0381 1.2464L66.4227 -0.0400047H65.08V0.959995ZM55 34.68L54.0326 34.9334L54.9364 38.3842L55.9581 34.9664L55 34.68ZM51.04 19.56V18.56H49.7444L50.0726 19.8134L51.04 19.56ZM62.44 23.52L61.7642 24.2572L61.7744 24.2663L62.44 23.52ZM62.32 45.72L61.6425 44.9844L61.6328 44.9935L62.32 45.72ZM39.64 45.72L38.9527 46.4465L38.9625 46.4555L39.64 45.72ZM35.44 30.72L34.4571 30.5357L34.4515 30.5657L34.4477 30.596L35.44 30.72ZM36.76 26.04L35.8288 25.6756L35.8218 25.6934L35.8155 25.7115L36.76 26.04ZM39.88 18.84L38.9749 18.4148L38.9713 18.4225L39.88 18.84ZM48.28 0.959995V-0.0400047H47.6449L47.3749 0.534782L48.28 0.959995ZM29.3219 0.673586L19.2419 34.3936L21.1581 34.9664L31.2381 1.2464L29.3219 0.673586ZM21.1674 34.4266L17.2074 19.3066L15.2726 19.8134L19.2326 34.9334L21.1674 34.4266ZM16.24 20.56C20.7647 20.56 24.3055 21.82 26.9643 24.2572L28.3157 22.7828C25.2145 19.94 21.1553 18.56 16.24 18.56V20.56ZM26.9744 24.2663C29.6811 26.6804 31.08 30.0658 31.08 34.56H33.08C33.08 29.6142 31.5189 25.6396 28.3056 22.7737L26.9744 24.2663ZM31.08 34.56C31.08 38.9585 29.6506 42.3981 26.8425 44.9845L28.1975 46.4555C31.4694 43.4419 33.08 39.4415 33.08 34.56H31.08ZM26.8328 44.9935C24.0812 47.5964 20.5774 48.92 16.24 48.92V50.92C21.0226 50.92 25.0388 49.4436 28.2072 46.4465L26.8328 44.9935ZM16.24 48.92C11.9029 48.92 8.35316 47.5963 5.51748 44.9845L4.16252 46.4555C7.40684 49.4437 11.4571 50.92 16.24 50.92V48.92ZM5.5272 44.9935C2.79537 42.4094 1.4 38.967 1.4 34.56H-0.6C-0.6 39.433 0.964629 43.4306 4.1528 46.4465L5.5272 44.9935ZM1.4 34.56C1.4 33.3218 1.47738 32.0832 1.63228 30.844L-0.352278 30.596C-0.517381 31.9168 -0.6 33.2382 -0.6 34.56H1.4ZM1.62287 30.9043C1.85039 29.6908 2.27368 28.1821 2.9045 26.3685L1.0155 25.7115C0.366315 27.5779 -0.0903916 29.1891 -0.342872 30.5357L1.62287 30.9043ZM2.89124 26.4044C3.60122 24.59 4.63229 22.2096 5.98868 19.2575L4.17132 18.4225C2.80771 21.3904 1.75878 23.81 1.02876 25.6756L2.89124 26.4044ZM5.98509 19.2652L14.3851 1.38521L12.5749 0.534782L4.17491 18.4148L5.98509 19.2652ZM13.48 1.96H30.28V-0.0400047H13.48V1.96ZM64.1219 0.673586L54.0419 34.3936L55.9581 34.9664L66.0381 1.2464L64.1219 0.673586ZM55.9674 34.4266L52.0074 19.3066L50.0726 19.8134L54.0326 34.9334L55.9674 34.4266ZM51.04 20.56C55.5647 20.56 59.1055 21.82 61.7643 24.2572L63.1157 22.7828C60.0145 19.94 55.9553 18.56 51.04 18.56V20.56ZM61.7744 24.2663C64.4811 26.6804 65.88 30.0658 65.88 34.56H67.88C67.88 29.6142 66.3189 25.6396 63.1056 22.7737L61.7744 24.2663ZM65.88 34.56C65.88 38.9585 64.4506 42.3981 61.6425 44.9845L62.9975 46.4555C66.2694 43.4419 67.88 39.4415 67.88 34.56H65.88ZM61.6328 44.9935C58.8812 47.5964 55.3774 48.92 51.04 48.92V50.92C55.8226 50.92 59.8388 49.4436 63.0072 46.4465L61.6328 44.9935ZM51.04 48.92C46.7029 48.92 43.1532 47.5963 40.3175 44.9845L38.9625 46.4555C42.2068 49.4437 46.2571 50.92 51.04 50.92V48.92ZM40.3272 44.9935C37.5954 42.4094 36.2 38.967 36.2 34.56H34.2C34.2 39.433 35.7646 43.4306 38.9528 46.4465L40.3272 44.9935ZM36.2 34.56C36.2 33.3218 36.2774 32.0832 36.4323 30.844L34.4477 30.596C34.2826 31.9168 34.2 33.2382 34.2 34.56H36.2ZM36.4229 30.9043C36.6504 29.6908 37.0737 28.1821 37.7045 26.3685L35.8155 25.7115C35.1663 27.5779 34.7096 29.1891 34.4571 30.5357L36.4229 30.9043ZM37.6912 26.4044C38.4012 24.59 39.4323 22.2096 40.7887 19.2575L38.9713 18.4225C37.6077 21.3904 36.5588 23.81 35.8288 25.6756L37.6912 26.4044ZM40.7851 19.2652L49.1851 1.38521L47.3749 0.534782L38.9749 18.4148L40.7851 19.2652ZM48.28 1.96H65.08V-0.0400047H48.28V1.96Z" fill="#0097A0" mask="url(#path-1-outside-1_606_19668)"/>
</svg>
