<svg width="40" height="40" viewBox="0 0 40 40" fill="none" xmlns="http://www.w3.org/2000/svg">
<path d="M38.1206 25.625H35.6206V24.375H34.3706V22.5H37.4956C37.5949 22.5004 37.6929 22.4768 37.781 22.431C37.8692 22.3853 37.945 22.3189 38.0019 22.2375C38.0599 22.1574 38.0982 22.0646 38.1134 21.9668C38.1286 21.869 38.1203 21.769 38.0894 21.675L36.2144 16.05C36.1713 15.9266 36.0911 15.8195 35.9848 15.7434C35.8785 15.6673 35.7513 15.626 35.6206 15.625H31.8706C31.7399 15.626 31.6127 15.6673 31.5064 15.7434C31.4001 15.8195 31.3199 15.9266 31.2769 16.05L29.4019 21.675C29.3709 21.769 29.3626 21.869 29.3778 21.9668C29.3931 22.0646 29.4313 22.1574 29.4894 22.2375C29.5462 22.3189 29.622 22.3853 29.7102 22.431C29.7983 22.4768 29.8963 22.5004 29.9956 22.5H33.1206V24.375H31.8706V25.625H29.3706C29.2048 25.625 29.0459 25.6908 28.9287 25.8081C28.8115 25.9253 28.7456 26.0842 28.7456 26.25V38.125C28.7456 38.2908 28.8115 38.4497 28.9287 38.5669C29.0459 38.6842 29.2048 38.75 29.3706 38.75H31.2456C31.4114 38.75 31.5703 38.6842 31.6875 38.5669C31.8048 38.4497 31.8706 38.2908 31.8706 38.125V36.875H35.6206V38.125C35.6206 38.2908 35.6865 38.4497 35.8037 38.5669C35.9209 38.6842 36.0798 38.75 36.2456 38.75H38.1206C38.2864 38.75 38.4453 38.6842 38.5625 38.5669C38.6798 38.4497 38.7456 38.2908 38.7456 38.125V26.25C38.7456 26.0842 38.6798 25.9253 38.5625 25.8081C38.4453 25.6908 38.2864 25.625 38.1206 25.625ZM30.8644 21.25L32.3206 16.875H35.1706L36.6269 21.25H30.8644ZM30.6206 37.5H29.9956V36.875H30.6206V37.5ZM37.4956 37.5H36.8706V36.875H37.4956V37.5ZM37.4956 35.625H29.9956V31.875H37.4956V35.625ZM37.4956 30.625H29.9956V26.875H37.4956V30.625ZM26.2456 26.6V21.25C26.2441 20.7532 26.0461 20.2771 25.6948 19.9258C25.3435 19.5745 24.8674 19.3765 24.3706 19.375H4.37061C3.87378 19.3765 3.39773 19.5745 3.04642 19.9258C2.69511 20.2771 2.49709 20.7532 2.49561 21.25V26.6C2.11692 26.8172 1.80205 27.1302 1.58263 27.5076C1.36322 27.885 1.24698 28.3135 1.24561 28.75V38.125C1.24561 38.2908 1.31145 38.4497 1.42866 38.5669C1.54587 38.6842 1.70485 38.75 1.87061 38.75H4.37061C4.53637 38.75 4.69534 38.6842 4.81255 38.5669C4.92976 38.4497 4.99561 38.2908 4.99561 38.125V36.25H23.7456V38.125C23.7456 38.2908 23.8115 38.4497 23.9287 38.5669C24.0459 38.6842 24.2048 38.75 24.3706 38.75H26.8706C27.0364 38.75 27.1953 38.6842 27.3125 38.5669C27.4298 38.4497 27.4956 38.2908 27.4956 38.125V28.75C27.4942 28.3135 27.378 27.885 27.1586 27.5076C26.9392 27.1302 26.6243 26.8172 26.2456 26.6ZM3.74561 21.25C3.74561 21.0842 3.81145 20.9253 3.92866 20.8081C4.04587 20.6908 4.20485 20.625 4.37061 20.625H24.3706C24.5364 20.625 24.6953 20.6908 24.8125 20.8081C24.9298 20.9253 24.9956 21.0842 24.9956 21.25V26.25H22.9019C23.0446 25.958 23.1194 25.6375 23.1206 25.3125C23.1206 24.7323 22.8901 24.1759 22.4799 23.7657C22.0697 23.3555 21.5133 23.125 20.9331 23.125H17.8081C17.2279 23.125 16.6715 23.3555 16.2613 23.7657C15.8511 24.1759 15.6206 24.7323 15.6206 25.3125C15.6219 25.6375 15.6966 25.958 15.8394 26.25H12.9019C13.0446 25.958 13.1194 25.6375 13.1206 25.3125C13.1206 24.7323 12.8901 24.1759 12.4799 23.7657C12.0697 23.3555 11.5133 23.125 10.9331 23.125H7.80811C7.22794 23.125 6.67155 23.3555 6.26131 23.7657C5.85107 24.1759 5.62061 24.7323 5.62061 25.3125C5.62185 25.6375 5.69664 25.958 5.83936 26.25H3.74561V21.25ZM21.8706 25.3125C21.8706 25.5611 21.7718 25.7996 21.596 25.9754C21.4202 26.1512 21.1817 26.25 20.9331 26.25H17.8081C17.5595 26.25 17.321 26.1512 17.1452 25.9754C16.9694 25.7996 16.8706 25.5611 16.8706 25.3125C16.8706 25.0639 16.9694 24.8254 17.1452 24.6496C17.321 24.4738 17.5595 24.375 17.8081 24.375H20.9331C21.1817 24.375 21.4202 24.4738 21.596 24.6496C21.7718 24.8254 21.8706 25.0639 21.8706 25.3125ZM11.8706 25.3125C11.8706 25.5611 11.7718 25.7996 11.596 25.9754C11.4202 26.1512 11.1817 26.25 10.9331 26.25H7.80811C7.55946 26.25 7.32101 26.1512 7.14519 25.9754C6.96938 25.7996 6.87061 25.5611 6.87061 25.3125C6.87061 25.0639 6.96938 24.8254 7.14519 24.6496C7.32101 24.4738 7.55946 24.375 7.80811 24.375H10.9331C11.1817 24.375 11.4202 24.4738 11.596 24.6496C11.7718 24.8254 11.8706 25.0639 11.8706 25.3125ZM3.74561 37.5H2.49561V36.25H3.74561V37.5ZM26.2456 37.5H24.9956V36.25H26.2456V37.5ZM26.2456 35H2.49561V33.125H26.2456V35ZM26.2456 31.875H2.49561V31.25H26.2456V31.875ZM26.2456 30H2.49561V28.75C2.49659 28.4188 2.62861 28.1014 2.86281 27.8672C3.09702 27.633 3.41439 27.501 3.74561 27.5H24.9956C25.3268 27.501 25.6442 27.633 25.8784 27.8672C26.1126 28.1014 26.2446 28.4188 26.2456 28.75V30Z" fill="#0097A0"/>
<path d="M34.9973 27.5H32.4973V28.75H34.9973V27.5Z" fill="#0097A0"/>
<path d="M34.9973 32.5H32.4973V33.75H34.9973V32.5Z" fill="#0097A0"/>
<path d="M33.7423 10.625C34.6076 10.625 35.4535 10.3684 36.1729 9.88768C36.8924 9.40695 37.4531 8.72367 37.7843 7.92424C38.1154 7.12482 38.2021 6.24515 38.0332 5.39648C37.8644 4.54781 37.4478 3.76826 36.8359 3.15641C36.224 2.54456 35.4445 2.12788 34.5958 1.95907C33.7472 1.79026 32.8675 1.8769 32.0681 2.20803C31.2686 2.53916 30.5854 3.09992 30.1046 3.81938C29.6239 4.53885 29.3673 5.38471 29.3673 6.25C29.3686 7.40992 29.83 8.52195 30.6502 9.34213C31.4704 10.1623 32.5824 10.6237 33.7423 10.625ZM33.7423 3.125C34.3604 3.125 34.9646 3.30828 35.4785 3.65166C35.9924 3.99504 36.3929 4.4831 36.6294 5.05412C36.866 5.62514 36.9278 6.25347 36.8073 6.85966C36.6867 7.46585 36.3891 8.02267 35.952 8.45971C35.515 8.89675 34.9582 9.19438 34.352 9.31496C33.7458 9.43553 33.1174 9.37365 32.5464 9.13713C31.9754 8.9006 31.4873 8.50006 31.144 7.98616C30.8006 7.47226 30.6173 6.86807 30.6173 6.25C30.6183 5.4215 30.9479 4.62723 31.5337 4.04139C32.1195 3.45555 32.9138 3.12599 33.7423 3.125Z" fill="#0097A0"/>
<path d="M34.3706 6.25V3.75H33.1206V5.625H31.8706V6.875H33.7456C33.9114 6.875 34.0703 6.80915 34.1875 6.69194C34.3048 6.57473 34.3706 6.41576 34.3706 6.25ZM26.8706 1.25H1.87061C1.70485 1.25 1.54587 1.31585 1.42866 1.43306C1.31145 1.55027 1.24561 1.70924 1.24561 1.875V17.5C1.24561 17.6658 1.31145 17.8247 1.42866 17.9419C1.54587 18.0592 1.70485 18.125 1.87061 18.125H26.8706C27.0364 18.125 27.1953 18.0592 27.3125 17.9419C27.4298 17.8247 27.4956 17.6658 27.4956 17.5V1.875C27.4956 1.70924 27.4298 1.55027 27.3125 1.43306C27.1953 1.31585 27.0364 1.25 26.8706 1.25ZM26.2456 16.875H6.30186L13.0769 12.6375L15.8581 14.8625L16.6331 13.8875L15.8519 13.2562L17.6394 11.65L18.9269 12.9437C19.0453 13.0599 19.2047 13.125 19.3706 13.125C19.5366 13.125 19.6959 13.0599 19.8144 12.9437L20.8331 11.9187L24.0706 12.4563L26.2456 14.6313V16.875ZM18.5644 10.8125L20.5956 8.9875L22.5519 10.9375L20.7206 10.6313C20.6226 10.6157 20.5223 10.6234 20.4278 10.6538C20.3334 10.6842 20.2474 10.7364 20.1769 10.8063L19.3706 11.6187L18.5644 10.8125ZM26.2456 12.8687L21.0644 7.68125C20.95 7.56886 20.7971 7.50433 20.6368 7.50085C20.4765 7.49737 20.321 7.55518 20.2019 7.6625L14.8581 12.4688L13.5081 11.3875C13.4077 11.3064 13.2845 11.2586 13.1557 11.2507C13.0269 11.2429 12.8988 11.2754 12.7894 11.3438L3.93936 16.875H2.49561V4.375H26.2456V12.8687ZM26.2456 3.125H2.49561V2.5H26.2456V3.125Z" fill="#0097A0"/>
</svg>
