<svg width="35" height="35" viewBox="0 0 35 35" fill="none" xmlns="http://www.w3.org/2000/svg">
<path fill-rule="evenodd" clip-rule="evenodd" d="M28.3621 9.053H27.5173C27.2759 8.44956 26.6724 7.9668 25.9483 7.9668H12.6724C11.9483 7.9668 11.3449 8.44956 11.1035 9.053H10.138C7.36209 9.053 4.9483 12.0702 4.82761 14.7254C4.46554 18.2254 5.79313 21.484 9.41382 22.6909C11.7069 23.4151 14.8449 23.053 16.5345 21.2427C17.3793 20.5185 18.3449 18.3461 19.3104 18.3461C20.2759 18.3461 21.2414 20.5185 21.9655 21.2427C23.7759 23.053 26.9138 23.4151 29.2069 22.6909C32.8276 21.484 34.1552 18.2254 33.7931 14.7254C33.5517 12.0702 31.2586 9.053 28.3621 9.053ZM28.3621 10.622H25.9483H12.6724H10.138C8.32761 10.622 6.39657 12.6737 6.27589 14.8461C5.67244 22.4496 13.2759 22.5702 15.569 20.1565C16.7759 18.9496 17.3793 16.7771 19.3104 16.7771C21.2414 16.7771 21.8449 18.9496 23.0517 20.1565C25.3449 22.5702 32.9483 22.4496 32.3449 14.8461C32.2242 12.6737 30.2931 10.622 28.3621 10.622Z" fill="#4F4F4F"/>
<path fill-rule="evenodd" clip-rule="evenodd" d="M21.6035 22.931H17.0172C15.931 22.931 15.0862 23.7759 15.0862 24.8621C15.0862 25.9483 15.931 26.7931 17.0172 26.7931H17.2586C16.7759 28.6034 15.569 29.8103 14.1207 30.4138C13.2759 30.7759 12.431 31.0172 11.4655 31.0172C10.6207 31.0172 9.65518 30.7759 8.81035 30.5345C6.87932 29.6897 5.18966 27.6379 5.06897 24.3793V0H1.08621V24.3793V24.5C1.2069 29.569 3.98276 32.8276 7.36207 34.1552C8.68966 34.7586 10.1379 35 11.5862 35C13.0345 35 14.3621 34.6379 15.6897 34.1552C18.5862 32.9483 20.8793 30.4138 21.3621 26.7931H21.6035C22.6897 26.7931 23.6552 25.9483 23.6552 24.8621C23.6552 23.7759 22.6897 22.931 21.6035 22.931Z" fill="#4F4F4F"/>
</svg>
