<svg width="35" height="35" viewBox="0 0 35 35" fill="none" xmlns="http://www.w3.org/2000/svg">
<g clip-path="url(#clip0_896_16422)">
<path d="M32.6211 16.1164C31.8386 16.1164 30.5866 16.353 29.7743 16.7106H29.6739C29.5008 13.8988 28.3774 11.3415 26.6209 9.35451L26.8461 9.12929C27.6409 8.78044 28.5851 8.12609 29.0991 7.61212C29.9718 6.7394 30.264 5.61674 29.7515 5.10467C29.2391 4.59261 28.1168 4.88478 27.2441 5.75712C26.697 6.30418 25.9883 7.33935 25.6615 8.16185L25.5451 8.27826C23.5577 6.52179 21 5.39799 18.1886 5.22527V4.97761C18.5215 4.16538 18.7391 2.98451 18.7391 2.23429C18.7391 1.00016 18.1521 0 17.4277 0C16.7034 0 16.1164 1.00054 16.1164 2.23429C16.1164 2.98451 16.334 4.16538 16.6668 4.97761V5.22527C13.8554 5.39837 11.2978 6.52179 9.31076 8.27826L9.19435 8.16185C8.86755 7.33897 8.15842 6.3038 7.61174 5.75712C6.73902 4.8844 5.61636 4.59223 5.10429 5.10467C4.59223 5.61712 4.8844 6.7394 5.75674 7.61212C6.27071 8.12609 7.21495 8.78082 8.00967 9.12929L8.23489 9.35451C6.47842 11.3415 5.35462 13.8988 5.1819 16.7106H5.08147C4.26924 16.353 3.01723 16.1164 2.23467 16.1164C1.00054 16.1164 0 16.7034 0 17.4277C0 18.1521 1.00054 18.7391 2.23429 18.7391C2.95141 18.7391 4.06114 18.5401 4.86728 18.232H5.18152C5.35462 21.0434 6.47804 23.601 8.23451 25.588L8.16185 25.6607C7.33897 25.9875 6.3038 26.6966 5.75674 27.2433C4.88402 28.116 4.59185 29.2387 5.10429 29.7508C5.61674 30.2628 6.73902 29.9707 7.61174 29.0983C8.12571 28.5844 8.78005 27.6405 9.12891 26.8458L9.31076 26.6639C11.2978 28.4204 13.8554 29.5442 16.6668 29.7169V29.8778C16.334 30.6901 16.1164 31.8709 16.1164 32.6211C16.1164 33.8553 16.7034 34.8554 17.4277 34.8554C18.1521 34.8554 18.7391 33.8549 18.7391 32.6211C18.7391 31.8709 18.5215 30.6901 18.1886 29.8778V29.7169C21.0004 29.5438 23.5577 28.4204 25.5447 26.6639L25.7265 26.8458C26.0754 27.6405 26.7297 28.5844 27.2437 29.0983C28.1164 29.971 29.2391 30.2632 29.7511 29.7508C30.2632 29.2383 29.971 28.116 29.0987 27.2433C28.5516 26.6963 27.5165 25.9875 26.6936 25.6607L26.6205 25.588C28.377 23.601 29.5008 21.0438 29.6735 18.232H29.9878C30.7939 18.5401 31.904 18.7391 32.6208 18.7391C33.8549 18.7391 34.8551 18.1521 34.8551 17.4277C34.8551 16.7034 33.8549 16.1164 32.6211 16.1164ZM27.6443 16.7102H20.0965C20.0375 16.5033 19.9561 16.3058 19.853 16.1213L25.1897 10.7846C25.3708 10.7777 25.5504 10.7252 25.7086 10.624C27.047 12.2397 27.9209 14.2522 28.1282 16.4557C27.9433 16.496 27.7786 16.5862 27.6443 16.7102ZM17.4277 18.7269C16.7353 18.7269 16.1719 18.1639 16.1719 17.4715C16.1719 16.7791 16.7353 16.2157 17.4277 16.2157C18.1201 16.2157 18.6835 16.7791 18.6835 17.4715C18.6835 18.1639 18.1201 18.7269 17.4277 18.7269ZM24.1142 9.7087L18.7771 15.0454C18.593 14.9423 18.3955 14.8613 18.1886 14.802V7.25413C18.3126 7.12022 18.4032 6.95511 18.4427 6.77022C20.6462 6.97755 22.6587 7.85179 24.2744 9.19016C24.1736 9.34804 24.1211 9.52761 24.1142 9.7087ZM16.6668 7.25413V14.802C16.4599 14.8609 16.2624 14.9423 16.0783 15.0454L10.7412 9.7087C10.7343 9.52761 10.6818 9.34804 10.5807 9.19016C12.1964 7.85179 14.2089 6.97794 16.4123 6.77022C16.4523 6.95511 16.5428 7.12022 16.6668 7.25413ZM9.14679 10.624C9.30505 10.7252 9.48462 10.7777 9.66571 10.7846L15.0024 16.1213C14.8993 16.3058 14.8179 16.5033 14.759 16.7102H7.21114C7.07723 16.5862 6.91212 16.4957 6.72723 16.4557C6.93456 14.2522 7.80842 12.2397 9.14679 10.624ZM7.21076 18.232H14.759C14.8179 18.4389 14.8993 18.6364 15.0024 18.8205L9.66571 24.1576C9.48462 24.1645 9.30505 24.217 9.14679 24.3182C7.80842 22.7024 6.93456 20.6899 6.72723 18.4865C6.91174 18.4465 7.07685 18.356 7.21076 18.232ZM10.7412 25.2335L16.0783 19.8967C16.2624 19.9998 16.4599 20.0809 16.6668 20.1402V27.688C16.5428 27.822 16.4523 27.9871 16.4127 28.172C14.2092 27.9646 12.1967 27.0904 10.581 25.752C10.6818 25.5941 10.7343 25.4146 10.7412 25.2335ZM18.1886 27.688V20.1402C18.3955 20.0813 18.593 19.9998 18.7771 19.8967L24.1139 25.2335C24.1207 25.4146 24.1732 25.5941 24.2744 25.7524C22.6587 27.0908 20.6462 27.9646 18.4427 28.1723C18.4032 27.9871 18.3126 27.822 18.1886 27.688ZM25.7086 24.3182C25.5504 24.217 25.3708 24.1645 25.1897 24.1576L19.8534 18.8205C19.9565 18.6364 20.0375 18.4389 20.0968 18.232H27.6451C27.779 18.356 27.9441 18.4461 28.129 18.4861C27.9209 20.6899 27.047 22.7024 25.7086 24.3182Z" fill="white"/>
</g>
<defs>
<clipPath id="clip0_896_16422">
<rect width="35" height="35" fill="white"/>
</clipPath>
</defs>
</svg>
