<svg width="36" height="36" viewBox="0 0 36 36" fill="none" xmlns="http://www.w3.org/2000/svg">
<g clip-path="url(#clip0_896_25005)">
<path d="M13.8585 8.06994C12.7945 8.12014 12.0679 8.28994 11.4327 8.53954C10.7752 8.79574 10.218 9.13954 9.66363 9.69594C9.10923 10.2523 8.76782 10.8099 8.51342 11.4683C8.26722 12.105 8.10042 12.8322 8.05342 13.8968C8.00642 14.9614 7.99602 15.3036 8.00122 18.0192C8.00642 20.7348 8.01842 21.0752 8.07002 22.142C8.12082 23.2058 8.29002 23.9322 8.53962 24.5676C8.79622 25.225 9.13963 25.782 9.69623 26.3366C10.2528 26.8912 10.81 27.2318 11.4701 27.4866C12.1061 27.7324 12.8335 27.9 13.8979 27.9466C14.9623 27.9932 15.3049 28.004 18.0197 27.9988C20.7345 27.9936 21.0763 27.9816 22.143 27.931C23.2096 27.8804 23.9322 27.71 24.5678 27.4616C25.2252 27.2044 25.7826 26.8616 26.3368 26.3048C26.891 25.748 27.2322 25.19 27.4864 24.5312C27.7328 23.8952 27.9002 23.1678 27.9464 22.1042C27.993 21.0368 28.004 20.696 27.9988 17.9808C27.9936 15.2656 27.9814 14.9252 27.9308 13.8588C27.8802 12.7924 27.7108 12.0682 27.4614 11.4323C27.2044 10.7749 26.8614 10.2183 26.305 9.66334C25.7486 9.10834 25.1902 8.76734 24.5316 8.51374C23.8952 8.26754 23.1682 8.09974 22.1038 8.05374C21.0393 8.00774 20.6967 7.99594 17.9809 8.00114C15.2651 8.00634 14.9251 8.01794 13.8585 8.06994ZM13.9753 26.1476C13.0003 26.1052 12.4709 25.9432 12.1181 25.8076C11.6509 25.6276 11.3181 25.41 10.9664 25.0618C10.6148 24.7136 10.3988 24.3796 10.2164 23.9134C10.0794 23.5606 9.91444 23.0318 9.86884 22.0568C9.81923 21.003 9.80883 20.6866 9.80303 18.0168C9.79723 15.347 9.80743 15.031 9.85363 13.9768C9.89524 13.0026 10.0582 12.4726 10.1936 12.12C10.3736 11.6522 10.5904 11.3199 10.9394 10.9685C11.2884 10.6171 11.6215 10.4007 12.0881 10.2183C12.4405 10.0807 12.9693 9.91714 13.9439 9.87074C14.9985 9.82074 15.3145 9.81074 17.9839 9.80494C20.6533 9.79914 20.9701 9.80914 22.0252 9.85554C22.9994 9.89794 23.5296 10.0593 23.8818 10.1955C24.3492 10.3755 24.6818 10.5917 25.0332 10.9413C25.3846 11.2909 25.6012 11.6228 25.7836 12.0904C25.9214 12.4418 26.085 12.9704 26.131 13.9456C26.1812 15.0002 26.1926 15.3164 26.1974 17.9856C26.2022 20.6548 26.1928 20.9718 26.1466 22.0256C26.104 23.0006 25.9424 23.5302 25.8066 23.8834C25.6266 24.3504 25.4096 24.6834 25.0604 25.0346C24.7112 25.3858 24.3786 25.6022 23.9118 25.7846C23.5598 25.922 23.0304 26.086 22.0566 26.1324C21.0019 26.182 20.6859 26.1924 18.0155 26.1982C15.3451 26.204 15.0301 26.1932 13.9755 26.1476M22.1276 12.6554C22.128 12.8927 22.1987 13.1246 22.3309 13.3217C22.4631 13.5189 22.6508 13.6724 22.8703 13.7628C23.0897 13.8533 23.3311 13.8766 23.5638 13.8299C23.7965 13.7832 24.0101 13.6685 24.1777 13.5003C24.3452 13.3322 24.4591 13.1181 24.505 12.8853C24.5508 12.6524 24.5266 12.4111 24.4354 12.192C24.3441 11.9729 24.1899 11.7858 23.9923 11.6543C23.7947 11.5228 23.5625 11.4529 23.3252 11.4533C23.007 11.454 22.7021 11.581 22.4775 11.8064C22.2529 12.0318 22.127 12.3372 22.1276 12.6554ZM12.8655 18.01C12.8711 20.846 15.1743 23.1398 18.0097 23.1344C20.8451 23.129 23.1406 20.826 23.1352 17.99C23.1298 15.154 20.8259 12.8596 17.9901 12.8652C15.1543 12.8708 12.8601 15.1744 12.8655 18.01ZM14.6667 18.0064C14.6654 17.3471 14.8596 16.7022 15.2248 16.1533C15.59 15.6044 16.1098 15.1761 16.7184 14.9226C17.327 14.6691 17.9971 14.6018 18.644 14.7291C19.2908 14.8565 19.8854 15.1728 20.3525 15.638C20.8196 16.1033 21.1383 16.6966 21.2682 17.343C21.3981 17.9894 21.3334 18.6597 21.0823 19.2693C20.8312 19.8789 20.405 20.4004 19.8576 20.7677C19.3101 21.1351 18.666 21.3319 18.0067 21.3332C17.5689 21.3341 17.1353 21.2488 16.7305 21.0821C16.3257 20.9154 15.9577 20.6706 15.6476 20.3616C15.3374 20.0527 15.0911 19.6857 14.9228 19.2816C14.7545 18.8775 14.6675 18.4441 14.6667 18.0064Z" fill="#0097A0"/>
</g>
<rect x="0.5" y="0.5" width="35" height="35" stroke="#0097A0"/>
<defs>
<clipPath id="clip0_896_25005">
<rect width="20" height="20" fill="white" transform="translate(8 8)"/>
</clipPath>
</defs>
</svg>
