<svg width="40" height="40" viewBox="0 0 40 40" fill="none" xmlns="http://www.w3.org/2000/svg">
<path d="M36.25 21.875H26.25H13.75H3.75C3.375 21.875 3.125 22.125 3.125 22.5V33.75C3.125 34.125 3.375 34.375 3.75 34.375H4.375V36.25C4.375 36.625 4.625 36.875 5 36.875H35C35.375 36.875 35.625 36.625 35.625 36.25V34.375H36.25C36.625 34.375 36.875 34.125 36.875 33.75V22.5C36.875 22.125 36.625 21.875 36.25 21.875ZM25.625 33.125H14.375V23.125H25.625V33.125ZM4.375 23.125H13.125V33.125H5H4.375V23.125ZM34.375 35.625H5.625V34.375H13.75H26.25H34.375V35.625ZM35.625 33.125H35H26.875V23.125H35.625V33.125Z" fill="#0097A0"/>
<path d="M16.25 31.875H23.75C24.125 31.875 24.375 31.625 24.375 31.25V25C24.375 24.625 24.125 24.375 23.75 24.375H16.25C15.875 24.375 15.625 24.625 15.625 25V31.25C15.625 31.625 15.875 31.875 16.25 31.875ZM16.875 25.625H23.125V30.625H16.875V25.625ZM7.5 25.625H10C10.375 25.625 10.625 25.375 10.625 25C10.625 24.625 10.375 24.375 10 24.375H7.5C7.125 24.375 6.875 24.625 6.875 25C6.875 25.375 7.125 25.625 7.5 25.625ZM6.875 13.125H9.375C9.75 13.125 10 12.875 10 12.5C10 12.125 9.75 11.875 9.375 11.875H6.875C6.5 11.875 6.25 12.125 6.25 12.5C6.25 12.875 6.5 13.125 6.875 13.125ZM30 25.625H32.5C32.875 25.625 33.125 25.375 33.125 25C33.125 24.625 32.875 24.375 32.5 24.375H30C29.625 24.375 29.375 24.625 29.375 25C29.375 25.375 29.625 25.625 30 25.625ZM30.625 13.125H33.125C33.5 13.125 33.75 12.875 33.75 12.5C33.75 12.125 33.5 11.875 33.125 11.875H30.625C30.25 11.875 30 12.125 30 12.5C30 12.875 30.25 13.125 30.625 13.125Z" fill="#0097A0"/>
<path d="M36.25 3.125H27.5C27.125 3.125 26.875 3.375 26.875 3.75V12.375C26.625 12.125 26.3125 12 26 11.9375L23.6875 8.4375C23.5 8.25 23.3125 8.125 23.125 8.125H21.875V3.75C21.875 3.375 21.625 3.125 21.25 3.125H18.75C18.375 3.125 18.125 3.375 18.125 3.75V8.125H16.875C16.6875 8.125 16.5 8.25 16.375 8.375L14.0625 11.875C13.75 11.9375 13.4375 12.125 13.1875 12.3125V3.75C13.1875 3.375 12.9375 3.125 12.5625 3.125H3.75C3.375 3.125 3.125 3.375 3.125 3.75V15C3.125 15.375 3.375 15.625 3.75 15.625H12.5C12.8125 15.625 13.0625 15.375 13.125 15.125C13.4375 15.4375 13.875 15.625 14.375 15.625H25.625C26.125 15.625 26.5625 15.4375 26.875 15.125C26.9375 15.4375 27.1875 15.625 27.5 15.625H36.25C36.625 15.625 36.875 15.375 36.875 15V3.75C36.875 3.375 36.625 3.125 36.25 3.125ZM11.875 14.375H4.375V4.375H11.875V14.375ZM19.375 4.375H20.625V8.125H19.375V4.375ZM17.1875 9.375H18.75H21.25H22.8125L24.5 11.875H15.5625L17.1875 9.375ZM25.625 14.375H14.375C14 14.375 13.75 14.125 13.75 13.75C13.75 13.375 14 13.125 14.375 13.125H25.625C26 13.125 26.25 13.375 26.25 13.75C26.25 14.125 26 14.375 25.625 14.375ZM35.625 14.375H28.125V4.375H35.625V14.375Z" fill="#0097A0"/>
</svg>
