<svg width="20" height="20" viewBox="0 0 20 20" fill="none" xmlns="http://www.w3.org/2000/svg">
<g clip-path="url(#clip0_896_28779)">
<path d="M10 0C8.02219 0 6.08879 0.58649 4.4443 1.6853C2.79981 2.78412 1.51809 4.3459 0.761209 6.17317C0.00433283 8.00043 -0.193701 10.0111 0.192152 11.9509C0.578004 13.8907 1.53041 15.6725 2.92894 17.0711C4.32746 18.4696 6.10929 19.422 8.0491 19.8079C9.98891 20.1937 11.9996 19.9957 13.8268 19.2388C15.6541 18.4819 17.2159 17.2002 18.3147 15.5557C19.4135 13.9112 20 11.9778 20 10C20 7.34784 18.9464 4.8043 17.0711 2.92893C15.1957 1.05357 12.6522 0 10 0ZM17.7893 6.42857H14.3857C13.8879 4.66893 13.0238 3.0344 11.85 1.63214C13.1423 1.92067 14.3506 2.5036 15.3808 3.33553C16.4109 4.16747 17.2352 5.22595 17.7893 6.42857ZM9.96072 18.2357C8.65101 16.9309 7.67257 15.3316 7.10715 13.5714H12.8929C12.3264 15.3319 11.3467 16.9313 10.0357 18.2357C10.0248 18.2436 10.0117 18.2478 9.99822 18.2478C9.98476 18.2478 9.97165 18.2436 9.96072 18.2357ZM6.74643 12.1429C6.48451 10.7263 6.48451 9.27371 6.74643 7.85714H13.2536C13.5155 9.27371 13.5155 10.7263 13.2536 12.1429H6.74643ZM1.42858 10C1.42744 9.27707 1.51866 8.55696 1.7 7.85714H5.29643C5.06323 9.2762 5.06323 10.7238 5.29643 12.1429H1.7C1.51866 11.443 1.42744 10.7229 1.42858 10ZM10 1.75C10.0126 1.74503 10.0267 1.74503 10.0393 1.75C11.3509 3.05889 12.3295 4.66329 12.8929 6.42857H7.10715C7.6736 4.66805 8.65329 3.06872 9.96429 1.76429C9.97402 1.75527 9.98674 1.75018 10 1.75ZM14.7036 7.85714H18.3C18.662 9.26279 18.662 10.7372 18.3 12.1429H14.7036C14.9368 10.7238 14.9368 9.2762 14.7036 7.85714ZM8.15 1.63214C6.97755 3.0353 6.11358 4.66954 5.61429 6.42857H2.21072C2.76484 5.22595 3.58908 4.16747 4.61924 3.33553C5.6494 2.5036 6.85768 1.92067 8.15 1.63214ZM2.21072 13.5714H5.61429C6.11208 15.3311 6.97621 16.9656 8.15 18.3679C6.85768 18.0793 5.6494 17.4964 4.61924 16.6645C3.58908 15.8325 2.76484 14.774 2.21072 13.5714ZM11.8536 18.3679C13.0248 16.9644 13.8875 15.3302 14.3857 13.5714H17.7893C17.2352 14.774 16.4109 15.8325 15.3808 16.6645C14.3506 17.4964 13.1423 18.0793 11.85 18.3679H11.8536Z" fill="#4F4F4F"/>
</g>
<defs>
<clipPath id="clip0_896_28779">
<rect width="20" height="20" fill="white"/>
</clipPath>
</defs>
</svg>
