<svg width="70" height="70" viewBox="0 0 70 70" fill="none" xmlns="http://www.w3.org/2000/svg">
<rect width="70" height="70" fill="#4F4F4F"/>
<path d="M7 64.8911L9.41006 59.5674H10.931L13.3488 64.8911H11.7421L9.85464 60.3051H10.463L8.57551 64.8911H7ZM8.31812 63.8568L8.7159 62.7464H11.3833L11.7811 63.8568H8.31812Z" fill="white"/>
<path d="M13.7866 64.8911V59.5674H15.331V64.8911H13.7866Z" fill="white"/>
<path d="M16.4297 64.8911V59.5674H18.9255C19.4247 59.5674 19.8537 59.646 20.2124 59.8032C20.5764 59.9604 20.8572 60.1885 21.0548 60.4877C21.2524 60.7817 21.3512 61.1316 21.3512 61.5372C21.3512 61.9377 21.2524 62.285 21.0548 62.5791C20.8572 62.8681 20.5764 63.0912 20.2124 63.2484C19.8537 63.4005 19.4247 63.4765 18.9255 63.4765H17.2876L17.974 62.8453V64.8911H16.4297ZM19.8069 64.8911L18.4497 62.9518H20.0955L21.4604 64.8911H19.8069ZM17.974 63.005L17.2876 62.3129H18.8319C19.1543 62.3129 19.3935 62.2445 19.5495 62.1076C19.7107 61.9707 19.7913 61.7806 19.7913 61.5372C19.7913 61.2887 19.7107 61.0961 19.5495 60.9592C19.3935 60.8223 19.1543 60.7538 18.8319 60.7538H17.2876L17.974 60.0618V63.005Z" fill="white"/>
<path d="M24.9564 64.9976C24.5196 64.9976 24.1167 64.9292 23.7475 64.7923C23.3783 64.6554 23.0559 64.4627 22.7803 64.2143C22.5099 63.9608 22.2994 63.6667 22.1486 63.332C21.9978 62.9974 21.9224 62.6298 21.9224 62.2293C21.9224 61.8287 21.9978 61.4611 22.1486 61.1265C22.2994 60.7919 22.5099 60.5003 22.7803 60.2519C23.0559 59.9984 23.3783 59.8032 23.7475 59.6663C24.1167 59.5294 24.5196 59.4609 24.9564 59.4609C25.3984 59.4609 25.8014 59.5294 26.1653 59.6663C26.5345 59.8032 26.8543 59.9984 27.1247 60.2519C27.3951 60.5003 27.6057 60.7919 27.7564 61.1265C27.9124 61.4611 27.9904 61.8287 27.9904 62.2293C27.9904 62.6298 27.9124 62.9999 27.7564 63.3396C27.6057 63.6743 27.3951 63.9658 27.1247 64.2143C26.8543 64.4627 26.5345 64.6554 26.1653 64.7923C25.8014 64.9292 25.3984 64.9976 24.9564 64.9976ZM24.9564 63.7503C25.1644 63.7503 25.3568 63.7148 25.5336 63.6439C25.7156 63.5729 25.8716 63.4715 26.0015 63.3396C26.1367 63.2028 26.2407 63.0405 26.3135 62.8529C26.3915 62.6653 26.4305 62.4574 26.4305 62.2293C26.4305 61.996 26.3915 61.7882 26.3135 61.6056C26.2407 61.418 26.1367 61.2583 26.0015 61.1265C25.8716 60.9896 25.7156 60.8857 25.5336 60.8147C25.3568 60.7437 25.1644 60.7082 24.9564 60.7082C24.7484 60.7082 24.5534 60.7437 24.3714 60.8147C24.1946 60.8857 24.0387 60.9896 23.9035 61.1265C23.7735 61.2583 23.6695 61.418 23.5915 61.6056C23.5187 61.7882 23.4823 61.996 23.4823 62.2293C23.4823 62.4574 23.5187 62.6653 23.5915 62.8529C23.6695 63.0405 23.7735 63.2028 23.9035 63.3396C24.0387 63.4715 24.1946 63.5729 24.3714 63.6439C24.5534 63.7148 24.7484 63.7503 24.9564 63.7503Z" fill="white"/>
<path d="M28.7993 64.8911V59.5674H30.0706L33.0812 63.1115H32.4807V59.5674H33.9938V64.8911H32.7224L29.7118 61.3471H30.3124V64.8911H28.7993Z" fill="white"/>
<path d="M39.2716 64.9976C38.8244 64.9976 38.3928 64.9444 37.9768 64.8379C37.5661 64.7264 37.2307 64.5844 36.9707 64.412L37.4777 63.3016C37.7221 63.4537 38.0028 63.5805 38.32 63.6819C38.6424 63.7782 38.9622 63.8264 39.2794 63.8264C39.4926 63.8264 39.6642 63.8086 39.7941 63.7732C39.9241 63.7326 40.0177 63.6819 40.0749 63.621C40.1373 63.5551 40.1685 63.4791 40.1685 63.3929C40.1685 63.2712 40.1113 63.1749 39.9969 63.1039C39.8825 63.0329 39.7343 62.9746 39.5524 62.929C39.3704 62.8833 39.1676 62.8377 38.944 62.7921C38.7256 62.7464 38.5046 62.6881 38.281 62.6171C38.0626 62.5462 37.8625 62.4549 37.6805 62.3434C37.4985 62.2267 37.3503 62.0772 37.2359 61.8946C37.1215 61.707 37.0643 61.4713 37.0643 61.1873C37.0643 60.8679 37.1527 60.5789 37.3295 60.3203C37.5115 60.0618 37.7819 59.8539 38.1406 59.6967C38.4994 59.5395 38.9466 59.4609 39.4822 59.4609C39.8409 59.4609 40.1919 59.5015 40.5351 59.5826C40.8835 59.6587 41.1929 59.7728 41.4632 59.9249L40.9875 61.0428C40.7275 60.9059 40.4701 60.8045 40.2153 60.7386C39.9605 60.6676 39.7135 60.6322 39.4744 60.6322C39.2612 60.6322 39.0896 60.655 38.9596 60.7006C38.8296 60.7412 38.736 60.7969 38.6788 60.8679C38.6216 60.9389 38.593 61.02 38.593 61.1113C38.593 61.2279 38.6476 61.3217 38.7568 61.3927C38.8712 61.4586 39.0194 61.5144 39.2014 61.56C39.3886 61.6006 39.5914 61.6437 39.8097 61.6893C40.0333 61.7349 40.2543 61.7932 40.4727 61.8642C40.6963 61.9301 40.8991 62.0214 41.0811 62.138C41.2631 62.2496 41.4086 62.3991 41.5178 62.5867C41.6322 62.7693 41.6894 62.9999 41.6894 63.2788C41.6894 63.5881 41.5984 63.8746 41.4165 64.1382C41.2397 64.3968 40.9719 64.6047 40.6131 64.7618C40.2595 64.919 39.8123 64.9976 39.2716 64.9976Z" fill="white"/>
<path d="M42.4028 64.8911V59.5674H44.8986C45.3978 59.5674 45.8268 59.646 46.1856 59.8032C46.5496 59.9604 46.8303 60.1885 47.0279 60.4877C47.2255 60.7817 47.3243 61.1316 47.3243 61.5372C47.3243 61.9377 47.2255 62.285 47.0279 62.5791C46.8303 62.8732 46.5496 63.1013 46.1856 63.2636C45.8268 63.4208 45.3978 63.4994 44.8986 63.4994H43.2607L43.9471 62.8453V64.8911H42.4028ZM43.9471 63.005L43.2607 62.3129H44.8051C45.1274 62.3129 45.3666 62.2445 45.5226 62.1076C45.6838 61.9707 45.7644 61.7806 45.7644 61.5372C45.7644 61.2887 45.6838 61.0961 45.5226 60.9592C45.3666 60.8223 45.1274 60.7538 44.8051 60.7538H43.2607L43.9471 60.0618V63.005Z" fill="white"/>
<path d="M47.1479 64.8911L49.558 59.5674H51.0789L53.4967 64.8911H51.89L50.0025 60.3051H50.6109L48.7234 64.8911H47.1479ZM48.466 63.8568L48.8638 62.7464H51.5313L51.929 63.8568H48.466Z" fill="white"/>
<path d="M56.5804 64.9976C56.1489 64.9976 55.7485 64.9317 55.3793 64.7999C55.0153 64.663 54.6981 64.4703 54.4278 64.2219C54.1626 63.9734 53.9546 63.6819 53.8038 63.3473C53.653 63.0076 53.5776 62.6349 53.5776 62.2293C53.5776 61.8237 53.653 61.4535 53.8038 61.1189C53.9546 60.7792 54.1626 60.4851 54.4278 60.2367C54.6981 59.9882 55.0153 59.7981 55.3793 59.6663C55.7485 59.5294 56.1489 59.4609 56.5804 59.4609C57.0848 59.4609 57.5346 59.5471 57.9298 59.7195C58.3301 59.8919 58.6629 60.1403 58.9281 60.4648L57.9454 61.3318C57.7686 61.129 57.5736 60.9744 57.3604 60.8679C57.1524 60.7614 56.9184 60.7082 56.6584 60.7082C56.4348 60.7082 56.2294 60.7437 56.0423 60.8147C55.8551 60.8857 55.6939 60.9896 55.5587 61.1265C55.4287 61.2583 55.3247 61.418 55.2467 61.6056C55.1739 61.7932 55.1375 62.0011 55.1375 62.2293C55.1375 62.4574 55.1739 62.6653 55.2467 62.8529C55.3247 63.0405 55.4287 63.2028 55.5587 63.3396C55.6939 63.4715 55.8551 63.5729 56.0423 63.6439C56.2294 63.7148 56.4348 63.7503 56.6584 63.7503C56.9184 63.7503 57.1524 63.6971 57.3604 63.5906C57.5736 63.4842 57.7686 63.3295 57.9454 63.1267L58.9281 63.9937C58.6629 64.3131 58.3301 64.5616 57.9298 64.739C57.5346 64.9114 57.0848 64.9976 56.5804 64.9976Z" fill="white"/>
<path d="M61.0362 61.6285H63.571V62.754H61.0362V61.6285ZM61.1454 63.7275H64V64.8911H59.6166V59.5674H63.8986V60.731H61.1454V63.7275Z" fill="white"/>
<path d="M35.1667 32.6907C35.1667 32.6907 49.8635 31.9022 50.9872 24.3948C52.1133 16.8874 45.0402 3.5923 30.6833 5.12126C30.6833 5.12126 39.1516 18.437 35.1667 32.6907Z" fill="white"/>
<path d="M29.5142 5.12109C28.5617 25.4151 21.0459 34.3879 21.0459 34.3879L32.523 32.6905C33.8402 19.0347 29.5142 5.12109 29.5142 5.12109Z" fill="white"/>
<path d="M36.1161 43.4906C24.67 40.4155 17.3787 45.9713 17.3787 46.6997C17.3787 47.4316 22.3842 44.92 34.8039 48.5603C43.4719 51.1011 53.1805 45.5762 53.1805 44.4561C53.1805 43.3326 47.2584 46.4799 36.1161 43.4906Z" fill="white"/>
<path d="M25.94 51.0269C19.1435 49.2007 14.8077 52.5009 14.8077 52.9338C14.8077 53.3685 17.7793 51.8739 25.1611 54.0385C30.3094 55.5468 36.0802 52.2656 36.0802 51.6007C36.0802 50.9342 32.5629 52.8033 25.94 51.0269Z" fill="white"/>
<path d="M46.955 51.4777C41.0539 49.8938 37.2923 52.7576 37.2923 53.1321C37.2923 53.51 39.8769 52.2147 46.279 54.0924C50.7464 55.4032 55.7557 52.5549 55.7557 51.9759C55.7557 51.397 52.701 53.0187 46.955 51.4777Z" fill="white"/>
<path d="M28.181 41.3331C36.7225 41.0273 35.3223 42.7486 45.2603 43.4169C45.2603 43.4169 47.2074 43.5355 49.6234 43.2606C51.7727 41.2798 53.8601 38.1394 54.2917 33.2656L17.2446 38.0037C17.2446 38.0037 17.4691 41.2369 19.2426 43.7038C20.8785 42.649 23.6653 41.4928 28.181 41.3331Z" fill="white"/>
</svg>
