<svg width="78" height="80" viewBox="0 0 78 80" fill="none" xmlns="http://www.w3.org/2000/svg">
<path d="M23.4976 9.06056C23.6547 8.21583 23.9094 7.39555 24.2558 6.61881C25.6302 3.74713 28.0081 1.57987 30.867 0.59315C33.7258 -0.393572 36.8318 -0.119048 39.5027 1.35641C45.0692 4.42439 46.928 11.597 44.404 17.754C39.982 28.5525 23.4976 39.9298 23.4976 39.9298C23.4976 39.9298 7.01316 28.5525 2.59123 17.754C0.0672029 11.597 1.92598 4.42439 7.49253 1.34589C10.1634 -0.129574 13.2694 -0.404097 16.1282 0.582625C18.9871 1.56935 21.3649 3.73661 22.7394 6.60829C23.0865 7.38836 23.3412 8.21223 23.4976 9.06056Z" fill="#E87968"/>
<path d="M0 79.8599L3.29798 72.8722H5.37923L8.68788 79.8599H6.48923L3.90635 73.8405H4.73885L2.15596 79.8599H0ZM1.80375 78.5023L2.34808 77.0448H5.99827L6.5426 78.5023H1.80375Z" fill="#E87968"/>
<path d="M9.28699 79.8599V72.8722H11.4003V79.8599H9.28699Z" fill="#E87968"/>
<path d="M12.9037 79.8599V72.8722H16.3191C17.0022 72.8722 17.5892 72.9753 18.0802 73.1816C18.5783 73.3879 18.9625 73.6874 19.2329 74.0801C19.5033 74.466 19.6385 74.9252 19.6385 75.4576C19.6385 75.9834 19.5033 76.4392 19.2329 76.8252C18.9625 77.2046 18.5783 77.4974 18.0802 77.7037C17.5892 77.9033 17.0022 78.0032 16.3191 78.0032H14.0778L15.017 77.1746V79.8599H12.9037ZM17.5252 79.8599L15.6681 77.3144H17.9201L19.7879 79.8599H17.5252ZM15.017 77.3842L14.0778 76.4758H16.1911C16.6322 76.4758 16.9595 76.386 17.173 76.2063C17.3936 76.0266 17.5038 75.7771 17.5038 75.4576C17.5038 75.1315 17.3936 74.8786 17.173 74.699C16.9595 74.5193 16.6322 74.4294 16.1911 74.4294H14.0778L15.017 73.521V77.3842Z" fill="#E87968"/>
<path d="M24.5719 79.9996C23.9742 79.9996 23.4228 79.9098 22.9176 79.7301C22.4124 79.5504 21.9712 79.2975 21.5941 78.9715C21.2241 78.6387 20.936 78.2527 20.7296 77.8135C20.5233 77.3743 20.4201 76.8918 20.4201 76.366C20.4201 75.8403 20.5233 75.3578 20.7296 74.9186C20.936 74.4794 21.2241 74.0967 21.5941 73.7706C21.9712 73.4378 22.4124 73.1816 22.9176 73.0019C23.4228 72.8223 23.9742 72.7324 24.5719 72.7324C25.1767 72.7324 25.7282 72.8223 26.2262 73.0019C26.7314 73.1816 27.169 73.4378 27.539 73.7706C27.909 74.0967 28.1972 74.4794 28.4036 74.9186C28.617 75.3578 28.7237 75.8403 28.7237 76.366C28.7237 76.8918 28.617 77.3776 28.4036 77.8235C28.1972 78.2627 27.909 78.6454 27.539 78.9715C27.169 79.2975 26.7314 79.5504 26.2262 79.7301C25.7282 79.9098 25.1767 79.9996 24.5719 79.9996ZM24.5719 78.3625C24.8565 78.3625 25.1198 78.3159 25.3617 78.2228C25.6108 78.1296 25.8242 77.9965 26.0021 77.8235C26.1871 77.6438 26.3294 77.4308 26.429 77.1846C26.5358 76.9384 26.5891 76.6655 26.5891 76.366C26.5891 76.0599 26.5358 75.7871 26.429 75.5475C26.3294 75.3012 26.1871 75.0916 26.0021 74.9186C25.8242 74.7389 25.6108 74.6025 25.3617 74.5093C25.1198 74.4161 24.8565 74.3695 24.5719 74.3695C24.2873 74.3695 24.0205 74.4161 23.7714 74.5093C23.5295 74.6025 23.3161 74.7389 23.1311 74.9186C22.9532 75.0916 22.8109 75.3012 22.7041 75.5475C22.6045 75.7871 22.5547 76.0599 22.5547 76.366C22.5547 76.6655 22.6045 76.9384 22.7041 77.1846C22.8109 77.4308 22.9532 77.6438 23.1311 77.8235C23.3161 77.9965 23.5295 78.1296 23.7714 78.2228C24.0205 78.3159 24.2873 78.3625 24.5719 78.3625Z" fill="#E87968"/>
<path d="M29.8306 79.8599V72.8722H31.5703L35.6901 77.524H34.8683V72.8722H36.9388V79.8599H35.1991L31.0793 75.2081H31.9012V79.8599H29.8306Z" fill="#E87968"/>
<path d="M44.1611 79.9996C43.5492 79.9996 42.9586 79.9298 42.3894 79.79C41.8273 79.6436 41.3683 79.4573 41.0125 79.231L41.7063 77.7736C42.0407 77.9732 42.4249 78.1396 42.859 78.2727C43.3001 78.3991 43.7377 78.4624 44.1718 78.4624C44.4635 78.4624 44.6983 78.4391 44.8762 78.3925C45.0541 78.3392 45.1822 78.2727 45.2604 78.1928C45.3458 78.1063 45.3885 78.0065 45.3885 77.8934C45.3885 77.7336 45.3102 77.6072 45.1537 77.514C44.9972 77.4208 44.7944 77.3443 44.5453 77.2844C44.2963 77.2245 44.0188 77.1646 43.7128 77.1047C43.414 77.0448 43.1116 76.9683 42.8056 76.8751C42.5068 76.782 42.2328 76.6622 41.9838 76.5158C41.7348 76.3627 41.532 76.1664 41.3754 75.9268C41.2189 75.6806 41.1406 75.3711 41.1406 74.9984C41.1406 74.5792 41.2616 74.1998 41.5035 73.8604C41.7525 73.521 42.1225 73.2482 42.6135 73.0419C43.1045 72.8356 43.7164 72.7324 44.4493 72.7324C44.9402 72.7324 45.4205 72.7857 45.8901 72.8921C46.3669 72.992 46.7902 73.1417 47.1602 73.3414L46.5092 74.8088C46.1534 74.6291 45.8012 74.496 45.4525 74.4095C45.1039 74.3163 44.7659 74.2697 44.4386 74.2697C44.1469 74.2697 43.9121 74.2997 43.7342 74.3596C43.5563 74.4128 43.4282 74.486 43.3499 74.5792C43.2717 74.6723 43.2325 74.7788 43.2325 74.8986C43.2325 75.0517 43.3073 75.1748 43.4567 75.268C43.6132 75.3545 43.816 75.4277 44.065 75.4876C44.3212 75.5408 44.5987 75.5974 44.8975 75.6573C45.2035 75.7172 45.5059 75.7937 45.8048 75.8869C46.1107 75.9734 46.3882 76.0932 46.6373 76.2462C46.8863 76.3927 47.0855 76.589 47.2349 76.8352C47.3915 77.0748 47.4698 77.3776 47.4698 77.7436C47.4698 78.1496 47.3452 78.5256 47.0962 78.8716C46.8543 79.211 46.4878 79.4839 45.9969 79.6902C45.513 79.8965 44.9011 79.9996 44.1611 79.9996Z" fill="#E87968"/>
<path d="M48.4459 79.8599V72.8722H51.8613C52.5444 72.8722 53.1314 72.9753 53.6224 73.1816C54.1204 73.3879 54.5047 73.6874 54.7751 74.0801C55.0454 74.466 55.1806 74.9252 55.1806 75.4576C55.1806 75.9834 55.0454 76.4392 54.7751 76.8252C54.5047 77.2112 54.1204 77.5107 53.6224 77.7236C53.1314 77.93 52.5444 78.0331 51.8613 78.0331H49.62L50.5592 77.1746V79.8599H48.4459ZM50.5592 77.3842L49.62 76.4758H51.7332C52.1744 76.4758 52.5017 76.386 52.7152 76.2063C52.9357 76.0266 53.046 75.7771 53.046 75.4576C53.046 75.1315 52.9357 74.8786 52.7152 74.699C52.5017 74.5193 52.1744 74.4294 51.7332 74.4294H49.62L50.5592 73.521V77.3842Z" fill="#E87968"/>
<path d="M54.9392 79.8599L58.2372 72.8722H60.3185L63.6271 79.8599H61.4285L58.8456 73.8405H59.6781L57.0952 79.8599H54.9392ZM56.743 78.5023L57.2873 77.0448H60.9375L61.4818 78.5023H56.743Z" fill="#E87968"/>
<path d="M67.8469 79.9996C67.2563 79.9996 66.7084 79.9131 66.2033 79.7401C65.7052 79.5604 65.2711 79.3075 64.9011 78.9814C64.5383 78.6553 64.2536 78.2727 64.0473 77.8335C63.8409 77.3876 63.7378 76.8984 63.7378 76.366C63.7378 75.8336 63.8409 75.3478 64.0473 74.9086C64.2536 74.4627 64.5383 74.0767 64.9011 73.7506C65.2711 73.4245 65.7052 73.175 66.2033 73.0019C66.7084 72.8223 67.2563 72.7324 67.8469 72.7324C68.5371 72.7324 69.1526 72.8456 69.6934 73.0718C70.2412 73.2981 70.6966 73.6242 71.0595 74.0501L69.7147 75.1881C69.4728 74.9219 69.2059 74.7189 68.9142 74.5792C68.6296 74.4394 68.3094 74.3695 67.9536 74.3695C67.6477 74.3695 67.3666 74.4161 67.1105 74.5093C66.8543 74.6025 66.6337 74.7389 66.4487 74.9186C66.2709 75.0916 66.1285 75.3012 66.0218 75.5475C65.9222 75.7937 65.8724 76.0666 65.8724 76.366C65.8724 76.6655 65.9222 76.9384 66.0218 77.1846C66.1285 77.4308 66.2709 77.6438 66.4487 77.8235C66.6337 77.9965 66.8543 78.1296 67.1105 78.2228C67.3666 78.3159 67.6477 78.3625 67.9536 78.3625C68.3094 78.3625 68.6296 78.2926 68.9142 78.1529C69.2059 78.0131 69.4728 77.8102 69.7147 77.544L71.0595 78.682C70.6966 79.1012 70.2412 79.4273 69.6934 79.6602C69.1526 79.8865 68.5371 79.9996 67.8469 79.9996Z" fill="#E87968"/>
<path d="M73.9442 75.5774H77.413V77.0548H73.9442V75.5774ZM74.0937 78.3326H78V79.8599H72.0017V72.8722H77.8613V74.3995H74.0937V78.3326Z" fill="#E87968"/>
<path d="M42.6821 37.5938C42.6821 37.5938 62.7935 36.5588 64.3311 26.7049C65.8721 16.851 56.1932 -0.599646 36.5469 1.40721C36.5469 1.40721 48.1351 18.8849 42.6821 37.5938Z" fill="#0097A0"/>
<path d="M34.9476 1.40625C33.6442 28.0434 23.3594 39.8207 23.3594 39.8207L39.0649 37.5929C40.8673 19.6687 34.9476 1.40625 34.9476 1.40625Z" fill="#0097A0"/>
<path d="M43.9923 51.7724C28.3292 47.7362 18.3516 55.0285 18.3516 55.9846C18.3516 56.9452 25.2013 53.6485 42.1967 58.4267C54.0582 61.7616 67.3435 54.5099 67.3435 53.0397C67.3435 51.565 59.2396 55.696 43.9923 51.7724Z" fill="#0097A0"/>
<path d="M30.0619 61.6645C20.7614 59.2675 14.8281 63.5992 14.8281 64.1674C14.8281 64.7379 18.8945 62.7762 28.996 65.6174C36.041 67.5972 43.9379 63.2903 43.9379 62.4177C43.9379 61.5428 39.1247 63.9961 30.0619 61.6645Z" fill="#0097A0"/>
<path d="M58.8163 62.2547C50.7412 60.1757 45.5938 63.9346 45.5938 64.4262C45.5938 64.9223 49.1306 63.2221 57.8914 65.6867C64.0046 67.4072 70.8594 63.6685 70.8594 62.9086C70.8594 62.1487 66.6793 64.2774 58.8163 62.2547Z" fill="#0097A0"/>
<path d="M33.1296 48.9406C44.818 48.5392 42.9019 50.7986 56.5013 51.6758C56.5013 51.6758 59.1658 51.8314 62.4719 51.4706C65.4131 48.8707 68.2694 44.7487 68.86 38.3516L18.1641 44.5706C18.1641 44.5706 18.4712 48.8143 20.8982 52.0523C23.1367 50.6678 26.9503 49.1503 33.1296 48.9406Z" fill="#0097A0"/>
</svg>
