<svg width="57" height="60" viewBox="0 0 57 60" fill="none" xmlns="http://www.w3.org/2000/svg">
<path d="M0 59.8911L2.41006 54.5674H3.93098L6.34884 59.8911H4.74213L2.85464 55.3051H3.463L1.57551 59.8911H0ZM1.31812 58.8568L1.7159 57.7464H4.38335L4.78113 58.8568H1.31812Z" fill="white"/>
<path d="M6.78665 59.8911V54.5674H8.33096V59.8911H6.78665Z" fill="white"/>
<path d="M9.42966 59.8911V54.5674H11.9255C12.4247 54.5674 12.8537 54.646 13.2124 54.8032C13.5764 54.9604 13.8572 55.1885 14.0548 55.4877C14.2524 55.7817 14.3512 56.1316 14.3512 56.5372C14.3512 56.9377 14.2524 57.285 14.0548 57.5791C13.8572 57.8681 13.5764 58.0912 13.2124 58.2484C12.8537 58.4005 12.4247 58.4765 11.9255 58.4765H10.2876L10.974 57.8453V59.8911H9.42966ZM12.8069 59.8911L11.4497 57.9518H13.0955L14.4604 59.8911H12.8069ZM10.974 58.005L10.2876 57.3129H11.8319C12.1543 57.3129 12.3935 57.2445 12.5495 57.1076C12.7107 56.9707 12.7913 56.7806 12.7913 56.5372C12.7913 56.2887 12.7107 56.0961 12.5495 55.9592C12.3935 55.8223 12.1543 55.7538 11.8319 55.7538H10.2876L10.974 55.0618V58.005Z" fill="white"/>
<path d="M17.9564 59.9976C17.5196 59.9976 17.1167 59.9292 16.7475 59.7923C16.3783 59.6554 16.0559 59.4627 15.7803 59.2143C15.5099 58.9608 15.2994 58.6667 15.1486 58.332C14.9978 57.9974 14.9224 57.6298 14.9224 57.2293C14.9224 56.8287 14.9978 56.4611 15.1486 56.1265C15.2994 55.7919 15.5099 55.5003 15.7803 55.2519C16.0559 54.9984 16.3783 54.8032 16.7475 54.6663C17.1167 54.5294 17.5196 54.4609 17.9564 54.4609C18.3984 54.4609 18.8014 54.5294 19.1653 54.6663C19.5345 54.8032 19.8543 54.9984 20.1247 55.2519C20.3951 55.5003 20.6057 55.7919 20.7564 56.1265C20.9124 56.4611 20.9904 56.8287 20.9904 57.2293C20.9904 57.6298 20.9124 57.9999 20.7564 58.3396C20.6057 58.6743 20.3951 58.9658 20.1247 59.2143C19.8543 59.4627 19.5345 59.6554 19.1653 59.7923C18.8014 59.9292 18.3984 59.9976 17.9564 59.9976ZM17.9564 58.7503C18.1644 58.7503 18.3568 58.7148 18.5336 58.6439C18.7156 58.5729 18.8716 58.4715 19.0015 58.3396C19.1367 58.2028 19.2407 58.0405 19.3135 57.8529C19.3915 57.6653 19.4305 57.4574 19.4305 57.2293C19.4305 56.996 19.3915 56.7882 19.3135 56.6056C19.2407 56.418 19.1367 56.2583 19.0015 56.1265C18.8716 55.9896 18.7156 55.8857 18.5336 55.8147C18.3568 55.7437 18.1644 55.7082 17.9564 55.7082C17.7484 55.7082 17.5534 55.7437 17.3714 55.8147C17.1946 55.8857 17.0387 55.9896 16.9035 56.1265C16.7735 56.2583 16.6695 56.418 16.5915 56.6056C16.5187 56.7882 16.4823 56.996 16.4823 57.2293C16.4823 57.4574 16.5187 57.6653 16.5915 57.8529C16.6695 58.0405 16.7735 58.2028 16.9035 58.3396C17.0387 58.4715 17.1946 58.5729 17.3714 58.6439C17.5534 58.7148 17.7484 58.7503 17.9564 58.7503Z" fill="white"/>
<path d="M21.7993 59.8911V54.5674H23.0706L26.0812 58.1115H25.4807V54.5674H26.9938V59.8911H25.7224L22.7118 56.3471H23.3124V59.8911H21.7993Z" fill="white"/>
<path d="M32.2716 59.9976C31.8244 59.9976 31.3928 59.9444 30.9768 59.8379C30.5661 59.7264 30.2307 59.5844 29.9707 59.412L30.4777 58.3016C30.7221 58.4537 31.0028 58.5805 31.32 58.6819C31.6424 58.7782 31.9622 58.8264 32.2794 58.8264C32.4926 58.8264 32.6642 58.8086 32.7941 58.7732C32.9241 58.7326 33.0177 58.6819 33.0749 58.621C33.1373 58.5551 33.1685 58.4791 33.1685 58.3929C33.1685 58.2712 33.1113 58.1749 32.9969 58.1039C32.8825 58.0329 32.7343 57.9746 32.5524 57.929C32.3704 57.8833 32.1676 57.8377 31.944 57.7921C31.7256 57.7464 31.5046 57.6881 31.281 57.6171C31.0626 57.5462 30.8625 57.4549 30.6805 57.3434C30.4985 57.2267 30.3503 57.0772 30.2359 56.8946C30.1215 56.707 30.0643 56.4713 30.0643 56.1873C30.0643 55.8679 30.1527 55.5789 30.3295 55.3203C30.5115 55.0618 30.7819 54.8539 31.1406 54.6967C31.4994 54.5395 31.9466 54.4609 32.4822 54.4609C32.8409 54.4609 33.1919 54.5015 33.5351 54.5826C33.8835 54.6587 34.1929 54.7728 34.4632 54.9249L33.9875 56.0428C33.7275 55.9059 33.4701 55.8045 33.2153 55.7386C32.9605 55.6676 32.7135 55.6322 32.4744 55.6322C32.2612 55.6322 32.0896 55.655 31.9596 55.7006C31.8296 55.7412 31.736 55.7969 31.6788 55.8679C31.6216 55.9389 31.593 56.02 31.593 56.1113C31.593 56.2279 31.6476 56.3217 31.7568 56.3927C31.8712 56.4586 32.0194 56.5144 32.2014 56.56C32.3886 56.6006 32.5914 56.6437 32.8097 56.6893C33.0333 56.7349 33.2543 56.7932 33.4727 56.8642C33.6963 56.9301 33.8991 57.0214 34.0811 57.138C34.2631 57.2496 34.4086 57.3991 34.5178 57.5867C34.6322 57.7693 34.6894 57.9999 34.6894 58.2788C34.6894 58.5881 34.5984 58.8746 34.4165 59.1382C34.2397 59.3968 33.9719 59.6047 33.6131 59.7618C33.2595 59.919 32.8123 59.9976 32.2716 59.9976Z" fill="white"/>
<path d="M35.4028 59.8911V54.5674H37.8986C38.3978 54.5674 38.8268 54.646 39.1856 54.8032C39.5496 54.9604 39.8303 55.1885 40.0279 55.4877C40.2255 55.7817 40.3243 56.1316 40.3243 56.5372C40.3243 56.9377 40.2255 57.285 40.0279 57.5791C39.8303 57.8732 39.5496 58.1013 39.1856 58.2636C38.8268 58.4208 38.3978 58.4994 37.8986 58.4994H36.2607L36.9471 57.8453V59.8911H35.4028ZM36.9471 58.005L36.2607 57.3129H37.8051C38.1274 57.3129 38.3666 57.2445 38.5226 57.1076C38.6838 56.9707 38.7644 56.7806 38.7644 56.5372C38.7644 56.2887 38.6838 56.0961 38.5226 55.9592C38.3666 55.8223 38.1274 55.7538 37.8051 55.7538H36.2607L36.9471 55.0618V58.005Z" fill="white"/>
<path d="M40.1479 59.8911L42.558 54.5674H44.0789L46.4967 59.8911H44.89L43.0025 55.3051H43.6109L41.7234 59.8911H40.1479ZM41.466 58.8568L41.8638 57.7464H44.5313L44.929 58.8568H41.466Z" fill="white"/>
<path d="M49.5804 59.9976C49.1489 59.9976 48.7485 59.9317 48.3793 59.7999C48.0153 59.663 47.6981 59.4703 47.4278 59.2219C47.1626 58.9734 46.9546 58.6819 46.8038 58.3473C46.653 58.0076 46.5776 57.6349 46.5776 57.2293C46.5776 56.8237 46.653 56.4535 46.8038 56.1189C46.9546 55.7792 47.1626 55.4851 47.4278 55.2367C47.6981 54.9882 48.0153 54.7981 48.3793 54.6663C48.7485 54.5294 49.1489 54.4609 49.5804 54.4609C50.0848 54.4609 50.5346 54.5471 50.9298 54.7195C51.3301 54.8919 51.6629 55.1403 51.9281 55.4648L50.9454 56.3318C50.7686 56.129 50.5736 55.9744 50.3604 55.8679C50.1524 55.7614 49.9184 55.7082 49.6584 55.7082C49.4348 55.7082 49.2294 55.7437 49.0423 55.8147C48.8551 55.8857 48.6939 55.9896 48.5587 56.1265C48.4287 56.2583 48.3247 56.418 48.2467 56.6056C48.1739 56.7932 48.1375 57.0011 48.1375 57.2293C48.1375 57.4574 48.1739 57.6653 48.2467 57.8529C48.3247 58.0405 48.4287 58.2028 48.5587 58.3396C48.6939 58.4715 48.8551 58.5729 49.0423 58.6439C49.2294 58.7148 49.4348 58.7503 49.6584 58.7503C49.9184 58.7503 50.1524 58.6971 50.3604 58.5906C50.5736 58.4842 50.7686 58.3295 50.9454 58.1267L51.9281 58.9937C51.6629 59.3131 51.3301 59.5616 50.9298 59.739C50.5346 59.9114 50.0848 59.9976 49.5804 59.9976Z" fill="white"/>
<path d="M54.0362 56.6285H56.571V57.754H54.0362V56.6285ZM54.1454 58.7275H57V59.8911H52.6166V54.5674H56.8986V55.731H54.1454V58.7275Z" fill="white"/>
<path d="M28.1667 27.6907C28.1667 27.6907 42.8635 26.9022 43.9872 19.3948C45.1133 11.8874 38.0402 -1.4077 23.6833 0.121264C23.6833 0.121264 32.1516 13.437 28.1667 27.6907Z" fill="white"/>
<path d="M22.5142 0.121094C21.5617 20.4151 14.0459 29.3879 14.0459 29.3879L25.523 27.6905C26.8402 14.0347 22.5142 0.121094 22.5142 0.121094Z" fill="white"/>
<path d="M29.1161 38.4906C17.67 35.4155 10.3787 40.9713 10.3787 41.6997C10.3787 42.4316 15.3842 39.92 27.8039 43.5603C36.4719 46.1011 46.1805 40.5762 46.1805 39.4561C46.1805 38.3326 40.2584 41.4799 29.1161 38.4906Z" fill="white"/>
<path d="M18.94 46.0269C12.1435 44.2007 7.80768 47.5009 7.80768 47.9338C7.80768 48.3685 10.7793 46.8739 18.1611 49.0385C23.3094 50.5468 29.0802 47.2656 29.0802 46.6007C29.0802 45.9342 25.5629 47.8033 18.94 46.0269Z" fill="white"/>
<path d="M39.955 46.4777C34.0539 44.8938 30.2923 47.7576 30.2923 48.1321C30.2923 48.51 32.8769 47.2147 39.279 49.0924C43.7464 50.4032 48.7557 47.5549 48.7557 46.9759C48.7557 46.397 45.701 48.0187 39.955 46.4777Z" fill="white"/>
<path d="M21.181 36.3331C29.7225 36.0273 28.3223 37.7486 38.2603 38.4169C38.2603 38.4169 40.2074 38.5355 42.6234 38.2606C44.7727 36.2798 46.8601 33.1394 47.2917 28.2656L10.2446 33.0037C10.2446 33.0037 10.4691 36.2369 12.2426 38.7038C13.8785 37.649 16.6653 36.4928 21.181 36.3331Z" fill="white"/>
</svg>
