<svg width="40" height="40" viewBox="0 0 40 40" fill="none" xmlns="http://www.w3.org/2000/svg">
<path d="M37.0625 30.0865C36.4767 29.5773 35.789 29.1988 35.0454 28.9762C34.3018 28.7537 33.5193 28.6922 32.75 28.7959L30 29.1521L34.2769 22.2021C34.3477 22.088 34.3799 21.9541 34.3686 21.8202C34.3573 21.6863 34.3033 21.5597 34.2144 21.459L31.0806 17.9371C30.4371 17.2097 29.6464 16.6273 28.7608 16.2286C27.8752 15.8299 26.915 15.6241 25.9437 15.6246H22.5625C23.6865 15.0494 24.5843 14.1128 25.1114 12.9654C25.6385 11.8181 25.7643 10.5267 25.4684 9.29925C25.1726 8.07176 24.4724 6.9795 23.4805 6.19825C22.4886 5.417 21.2626 4.99219 20 4.99219C18.7374 4.99219 17.5114 5.417 16.5195 6.19825C15.5276 6.9795 14.8274 8.07176 14.5316 9.29925C14.2357 10.5267 14.3615 11.8181 14.8886 12.9654C15.4157 14.1128 16.3135 15.0494 17.4375 15.6246H14.0562C13.0853 15.6243 12.1253 15.8303 11.2399 16.2289C10.3545 16.6276 9.56399 17.2099 8.92062 17.9371L5.78312 21.4621C5.69375 21.5625 5.6391 21.6889 5.62728 21.8228C5.61546 21.9567 5.64709 22.0908 5.7175 22.2052L9.99437 29.1552L7.2475 28.799C6.47825 28.6954 5.69575 28.7569 4.95214 28.9795C4.20853 29.202 3.52088 29.5805 2.935 30.0896C2.40722 30.5424 1.98344 31.1038 1.69262 31.7355C1.40181 32.3672 1.25083 33.0542 1.25 33.7496C1.28974 35.1122 1.86786 36.4034 2.85774 37.3406C3.84762 38.2778 5.16856 38.7844 6.53125 38.7496H33.4687C34.8314 38.7844 36.1524 38.2778 37.1423 37.3406C38.1321 36.4034 38.7103 35.1122 38.75 33.7496C38.7495 33.0534 38.5984 32.3656 38.3072 31.7333C38.0159 31.1011 37.5913 30.5393 37.0625 30.0865ZM15.625 10.6246C15.625 9.75931 15.8816 8.91345 16.3623 8.19398C16.8431 7.47452 17.5263 6.91376 18.3258 6.58263C19.1252 6.2515 20.0049 6.16486 20.8535 6.33367C21.7022 6.50248 22.4817 6.91916 23.0936 7.53101C23.7054 8.14287 24.1221 8.92242 24.2909 9.77108C24.4597 10.6198 24.3731 11.4994 24.042 12.2988C23.7108 13.0983 23.1501 13.7816 22.4306 14.2623C21.7112 14.743 20.8653 14.9996 20 14.9996C18.8401 14.9983 17.7281 14.5369 16.9079 13.7167C16.0877 12.8965 15.6263 11.7845 15.625 10.6246ZM7.02625 21.9427L9.85625 18.7634C10.3826 18.1689 11.0292 17.6932 11.7532 17.3675C12.4773 17.0419 13.2623 16.8739 14.0562 16.8746H25.9437C26.7381 16.874 27.5235 17.0422 28.2479 17.3682C28.9724 17.6941 29.6192 18.1703 30.1456 18.7652L32.9737 21.9427L28.4112 29.359L28.2862 29.3746H26.1175L30.5306 22.2015C30.5738 22.1311 30.6026 22.0529 30.6154 21.9714C30.6282 21.8898 30.6247 21.8065 30.6051 21.7263C30.5855 21.6461 30.5502 21.5706 30.5013 21.5041C30.4524 21.4377 30.3907 21.3815 30.32 21.339L27.195 19.464C27.1002 19.4075 26.9922 19.3771 26.8818 19.3759C26.7715 19.3747 26.6628 19.4027 26.5668 19.4571C26.4708 19.5115 26.3909 19.5904 26.3353 19.6857C26.2796 19.7809 26.2502 19.8893 26.25 19.9996V26.779L24.4675 29.6721C24.43 29.7362 24.4042 29.8065 24.3912 29.8796L20 30.449L15.6087 29.8796C15.5958 29.8065 15.5699 29.7362 15.5325 29.6721L13.75 26.779V19.9996C13.75 19.889 13.7206 19.7803 13.6649 19.6848C13.6091 19.5892 13.529 19.5102 13.4327 19.4557C13.3364 19.4013 13.2274 19.3733 13.1168 19.3748C13.0062 19.3762 12.8979 19.407 12.8031 19.464L9.67812 21.339C9.60738 21.3815 9.54576 21.4377 9.49683 21.5041C9.4479 21.5706 9.41263 21.6461 9.39305 21.7263C9.37346 21.8065 9.36996 21.8898 9.38274 21.9714C9.39552 22.0529 9.42433 22.1311 9.4675 22.2015L12.5925 27.2827L13.8806 29.3746H11.7119L11.5869 29.359L7.02625 21.9427ZM27.5 24.7496V21.104L29.1369 22.0852L27.5 24.7496ZM12.5 21.104V24.7496L10.8631 22.0884L12.5 21.104ZM33.4687 37.4996H6.53125C5.50006 37.5344 4.49705 37.1594 3.7416 36.4567C2.98614 35.7539 2.53973 34.7806 2.5 33.7496C2.50146 33.2314 2.61505 32.7196 2.83298 32.2495C3.05091 31.7793 3.36801 31.3619 3.7625 31.0259C4.52772 30.3593 5.50959 29.9945 6.52437 29.9996C6.71247 29.9998 6.90036 30.0121 7.08687 30.0365L10.93 30.5365C11.0268 30.5942 11.1373 30.6246 11.25 30.6246H11.625L19.9181 31.6996C19.9713 31.7052 20.0249 31.7052 20.0781 31.6996L28.375 30.6246H28.75C28.8628 30.624 28.9734 30.5929 29.07 30.5346L32.9131 30.0346C33.5057 29.9541 34.1086 30.0006 34.6818 30.1711C35.2549 30.3416 35.7853 30.6321 36.2375 31.0234C36.6321 31.3598 36.9493 31.7777 37.1672 32.2483C37.3851 32.7189 37.4986 33.231 37.5 33.7496C37.4604 34.7807 37.0141 35.7541 36.2586 36.4569C35.5031 37.1597 34.5 37.5346 33.4687 37.4996Z" fill="#0097A0"/>
<path d="M33.1229 35.6255V36.8755C34.1171 36.8745 35.0704 36.4791 35.7734 35.7761C36.4765 35.073 36.8719 34.1198 36.8729 33.1255H35.6229C35.6229 33.7886 35.3595 34.4245 34.8907 34.8933C34.4218 35.3621 33.7859 35.6255 33.1229 35.6255ZM4.37289 33.1255H3.12289C3.12388 34.1198 3.51929 35.073 4.22233 35.7761C4.92538 36.4791 5.87863 36.8745 6.87289 36.8755V35.6255C6.20985 35.6255 5.57396 35.3621 5.10512 34.8933C4.63628 34.4245 4.37289 33.7886 4.37289 33.1255ZM29.3729 31.8755H24.9979C24.8667 31.8755 24.7388 31.9168 24.6323 31.9935C24.5258 32.0702 24.4462 32.1785 24.4048 32.303L23.9223 33.7505H21.8729V35.0005H24.3729C24.5041 35.0006 24.632 34.9593 24.7385 34.8826C24.8449 34.8058 24.9245 34.6975 24.966 34.573L25.4485 33.1255H28.7479V33.9637L24.7516 35.6762L25.2441 36.8249L29.6191 34.9499C29.7315 34.9017 29.8273 34.8216 29.8947 34.7195C29.962 34.6174 29.9979 34.4978 29.9979 34.3755V32.5005C29.9979 32.3348 29.932 32.1758 29.8148 32.0586C29.6976 31.9414 29.5387 31.8755 29.3729 31.8755ZM17.466 32.303C17.4245 32.1785 17.3449 32.0702 17.2385 31.9935C17.132 31.9168 17.0041 31.8755 16.8729 31.8755H12.4979C12.3321 31.8755 12.1732 31.9414 12.0559 32.0586C11.9387 32.1758 11.8729 32.3348 11.8729 32.5005V34.3755C11.8729 34.4978 11.9088 34.6174 11.9761 34.7195C12.0434 34.8216 12.1392 34.9017 12.2516 34.9499L16.6266 36.8249L17.1191 35.6762L13.1229 33.9637V33.1255H16.4223L16.9048 34.573C16.9462 34.6975 17.0258 34.8058 17.1323 34.8826C17.2388 34.9593 17.3667 35.0006 17.4979 35.0005H19.9979V33.7505H17.9485L17.466 32.303ZM38.3048 5.59428C36.2523 4.79303 35.7329 4.18303 35.0373 1.75803C34.9983 1.61159 34.912 1.48212 34.7919 1.38977C34.6717 1.29741 34.5244 1.24734 34.3729 1.24734C34.2213 1.24734 34.0741 1.29741 33.9539 1.38977C33.8338 1.48212 33.7475 1.61159 33.7085 1.75803C33.0129 4.18428 32.4935 4.79428 30.4454 5.59366C30.3143 5.64595 30.2019 5.73623 30.1225 5.85291C30.0432 5.96958 30.0005 6.10733 30.0001 6.24843C29.9996 6.38953 30.0413 6.52756 30.1199 6.64476C30.1985 6.76197 30.3103 6.853 30.441 6.90616C32.4935 7.70741 33.0129 8.31741 33.7085 10.7424C33.7475 10.8889 33.8338 11.0183 33.9539 11.1107C34.0741 11.203 34.2213 11.2531 34.3729 11.2531C34.5244 11.2531 34.6717 11.203 34.7919 11.1107C34.912 11.0183 34.9983 10.8889 35.0373 10.7424C35.7329 8.31616 36.2523 7.70616 38.3041 6.90491C38.435 6.85218 38.5471 6.76152 38.6261 6.64458C38.7051 6.52764 38.7473 6.38976 38.7473 6.24866C38.7473 6.10755 38.7051 5.96967 38.6261 5.85273C38.5471 5.73579 38.435 5.64513 38.3041 5.59241L38.3048 5.59428ZM34.3729 8.82491C33.9553 7.69701 33.1174 6.77448 32.0348 6.25053C33.1177 5.72696 33.9557 4.80429 34.3729 3.67616C34.7905 4.80405 35.6284 5.72659 36.711 6.25053C35.6281 6.77411 34.7901 7.69677 34.3729 8.82491ZM1.69101 6.90678C3.74351 7.70803 4.26289 8.31803 4.95851 10.743C4.99749 10.8895 5.08375 11.0189 5.2039 11.1113C5.32405 11.2037 5.47135 11.2537 5.62289 11.2537C5.77443 11.2537 5.92173 11.2037 6.04187 11.1113C6.16202 11.0189 6.24829 10.8895 6.28726 10.743C6.98289 8.31678 7.50226 7.70678 9.55414 6.90553C9.68502 6.85281 9.79715 6.76215 9.87611 6.64521C9.95508 6.52827 9.99727 6.39039 9.99727 6.24928C9.99727 6.10818 9.95508 5.9703 9.87611 5.85336C9.79715 5.73642 9.68502 5.64576 9.55414 5.59303C7.50164 4.79178 6.98226 4.18178 6.28664 1.75678C6.24766 1.61034 6.1614 1.48087 6.04125 1.38852C5.9211 1.29616 5.77381 1.24609 5.62226 1.24609C5.47072 1.24609 5.32342 1.29616 5.20328 1.38852C5.08313 1.48087 4.99686 1.61034 4.95789 1.75678C4.26289 4.18303 3.74351 4.79303 1.69539 5.59241C1.56433 5.6447 1.4519 5.73498 1.37254 5.85166C1.29319 5.96833 1.25054 6.10608 1.25006 6.24718C1.24959 6.38829 1.29133 6.52631 1.3699 6.64351C1.44848 6.76072 1.5603 6.85175 1.69101 6.90491V6.90678ZM5.62289 3.67616C6.04053 4.80405 6.8784 5.72659 7.96101 6.25053C6.87812 6.77411 6.04013 7.69677 5.62289 8.82491C5.20525 7.69701 4.36737 6.77448 3.28476 6.25053C4.36765 5.72696 5.20565 4.80429 5.62289 3.67616Z" fill="#0097A0"/>
</svg>
