<svg width="40" height="40" viewBox="0 0 40 40" fill="none" xmlns="http://www.w3.org/2000/svg">
<path d="M36.875 28.75H36.25V22.5C36.25 21.3397 35.7891 20.2269 34.9686 19.4064C34.1481 18.5859 33.0353 18.125 31.875 18.125H26.25C26.25 17.2962 25.9208 16.5013 25.3347 15.9153C24.7487 15.3292 23.9538 15 23.125 15V13.125C23.125 12.9592 23.0592 12.8003 22.9419 12.6831C22.8247 12.5658 22.6658 12.5 22.5 12.5H21.875V11.25H23.75C24.2473 11.25 24.7242 11.0525 25.0758 10.7008C25.4275 10.3492 25.625 9.87228 25.625 9.375C25.625 8.87772 25.4275 8.40081 25.0758 8.04917C24.7242 7.69754 24.2473 7.5 23.75 7.5H16.25C15.7527 7.5 15.2758 7.69754 14.9242 8.04917C14.5725 8.40081 14.375 8.87772 14.375 9.375C14.375 9.87228 14.5725 10.3492 14.9242 10.7008C15.2758 11.0525 15.7527 11.25 16.25 11.25H18.125V12.5H17.5C17.3342 12.5 17.1753 12.5658 17.0581 12.6831C16.9408 12.8003 16.875 12.9592 16.875 13.125V15C16.0462 15 15.2513 15.3292 14.6653 15.9153C14.0792 16.5013 13.75 17.2962 13.75 18.125H6.25V17.5C6.25 17.3342 6.18415 17.1753 6.06694 17.0581C5.94973 16.9408 5.79076 16.875 5.625 16.875H3.75V16.25C3.75 16.0842 3.68415 15.9253 3.56694 15.8081C3.44973 15.6908 3.29076 15.625 3.125 15.625C2.95924 15.625 2.80027 15.6908 2.68306 15.8081C2.56585 15.9253 2.5 16.0842 2.5 16.25V26.25C2.5 26.4158 2.56585 26.5747 2.68306 26.6919C2.80027 26.8092 2.95924 26.875 3.125 26.875C3.29076 26.875 3.44973 26.8092 3.56694 26.6919C3.68415 26.5747 3.75 26.4158 3.75 26.25V25.625H5.625C5.79076 25.625 5.94973 25.5592 6.06694 25.4419C6.18415 25.3247 6.25 25.1658 6.25 25V24.375H13.75C13.75 25.2038 14.0792 25.9987 14.6653 26.5847C15.2513 27.1708 16.0462 27.5 16.875 27.5H23.125C23.9538 27.5 24.7487 27.1708 25.3347 26.5847C25.9208 25.9987 26.25 25.2038 26.25 24.375H29.375C29.5408 24.375 29.6997 24.4408 29.8169 24.5581C29.9342 24.6753 30 24.8342 30 25V28.75H29.375C29.2092 28.75 29.0503 28.8158 28.9331 28.9331C28.8158 29.0503 28.75 29.2092 28.75 29.375V31.875C28.75 32.0408 28.8158 32.1997 28.9331 32.3169C29.0503 32.4342 29.2092 32.5 29.375 32.5H36.875C37.0408 32.5 37.1997 32.4342 37.3169 32.3169C37.4342 32.1997 37.5 32.0408 37.5 31.875V29.375C37.5 29.2092 37.4342 29.0503 37.3169 28.9331C37.1997 28.8158 37.0408 28.75 36.875 28.75ZM15.625 9.375C15.625 9.20924 15.6908 9.05027 15.8081 8.93306C15.9253 8.81585 16.0842 8.75 16.25 8.75H23.75C23.9158 8.75 24.0747 8.81585 24.1919 8.93306C24.3092 9.05027 24.375 9.20924 24.375 9.375C24.375 9.54076 24.3092 9.69973 24.1919 9.81694C24.0747 9.93415 23.9158 10 23.75 10H16.25C16.0842 10 15.9253 9.93415 15.8081 9.81694C15.6908 9.69973 15.625 9.54076 15.625 9.375ZM19.375 11.25H20.625V12.5H19.375V11.25ZM18.125 13.75H21.875V15H18.125V13.75ZM5 24.375H3.75V18.125H5V24.375ZM6.25 23.125V19.375H13.75V23.125H6.25ZM25 24.375C25 24.8723 24.8025 25.3492 24.4508 25.7008C24.0992 26.0525 23.6223 26.25 23.125 26.25H16.875C16.3777 26.25 15.9008 26.0525 15.5492 25.7008C15.1975 25.3492 15 24.8723 15 24.375V18.125C15 17.6277 15.1975 17.1508 15.5492 16.7992C15.9008 16.4475 16.3777 16.25 16.875 16.25H23.125C23.6223 16.25 24.0992 16.4475 24.4508 16.7992C24.8025 17.1508 25 17.6277 25 18.125V24.375ZM29.375 23.125H26.25V19.375H31.875C32.7038 19.375 33.4987 19.7042 34.0847 20.2903C34.6708 20.8763 35 21.6712 35 22.5V28.75H31.25V25C31.25 24.5027 31.0525 24.0258 30.7008 23.6742C30.3492 23.3225 29.8723 23.125 29.375 23.125ZM36.25 31.25H30V30H36.25V31.25Z" fill="#0097A0"/>
</svg>
