<svg width="28" height="28" viewBox="0 0 28 28" fill="none" xmlns="http://www.w3.org/2000/svg">
<path d="M26.34 2.44915C25.817 1.99119 25.0981 1.87334 24.4682 2.14226L3.13837 11.2348C2.20009 11.6426 1.75257 12.7764 2.13877 13.767C2.33851 14.2794 2.73612 14.677 3.23138 14.8598L7.83287 16.549L10.3266 25.2549C10.3316 25.2726 10.347 25.2834 10.3535 25.3004C10.3793 25.3699 10.417 25.4338 10.4646 25.4889C10.4823 25.511 10.5016 25.5318 10.5223 25.551C10.5844 25.6055 10.6566 25.6458 10.7342 25.6692C10.746 25.6729 10.7539 25.6841 10.766 25.687L10.773 25.6867L10.7764 25.6882C10.8162 25.6976 10.8567 25.7021 10.8974 25.7017C10.9505 25.6997 11.0032 25.69 11.0537 25.6729C11.0635 25.6701 11.0734 25.6709 11.083 25.6675C11.1694 25.6353 11.2474 25.5825 11.311 25.513C11.3184 25.5051 11.3297 25.5038 11.3368 25.4955L14.9245 21.3156L20.1585 25.5949C20.4765 25.8574 20.8686 26.0001 21.2722 26C22.1453 25.9998 22.899 25.3541 23.0789 24.452L26.9631 4.3175C27.0977 3.62101 26.8581 2.90289 26.34 2.44915ZM11.6287 18.2L10.7868 22.5202L9.03098 16.3886L17.7392 11.6006L11.7903 17.8821C11.708 17.969 11.6519 18.0796 11.6287 18.2ZM21.9129 24.1992C21.8672 24.4306 21.7109 24.6203 21.5002 24.7C21.2942 24.7836 21.0617 24.7463 20.8886 24.6018L15.2176 19.9653C14.9721 19.7646 14.6216 19.7972 14.4131 20.0402L11.9182 22.9467L12.7587 18.6383L21.3165 9.60095C21.5491 9.35582 21.5494 8.95809 21.3173 8.71257C21.1337 8.51823 20.8518 8.47235 20.6212 8.59925L8.28388 15.383L3.62084 13.6716C3.36667 13.5832 3.19381 13.3341 3.19069 13.0516C3.17841 12.7671 3.3379 12.5056 3.58829 12.3998L24.9147 3.30844C25.1374 3.20863 25.3945 3.25044 25.5785 3.41647C25.7616 3.57252 25.8457 3.82425 25.7959 4.06708L21.9129 24.1992Z" fill="#4F4F4F"/>
</svg>
