<svg width="36" height="36" viewBox="0 0 36 36" fill="none" xmlns="http://www.w3.org/2000/svg">
<path d="M17.1667 9.04102C16.8215 9.04102 16.5417 9.32084 16.5417 9.66602V21.3327C16.5417 22.3682 15.7022 23.2077 14.6667 23.2077C13.6311 23.2077 12.7917 22.3682 12.7917 21.3327C12.7917 20.2972 13.6311 19.4577 14.6667 19.4577C15.0118 19.4577 15.2917 19.1778 15.2917 18.8327V16.3327C15.2917 15.9875 15.0118 15.7077 14.6667 15.7077C11.5601 15.7077 9.04166 18.2261 9.04166 21.3327C9.04166 24.4393 11.5601 26.9577 14.6667 26.9577C17.7732 26.9577 20.2917 24.4393 20.2917 21.3327V16.5136C21.5546 17.322 23.0562 17.791 24.6667 17.791C25.0118 17.791 25.2917 17.5112 25.2917 17.166V14.666C25.2917 14.3208 25.0118 14.041 24.6667 14.041C22.2504 14.041 20.2917 12.0823 20.2917 9.66602C20.2917 9.32084 20.0118 9.04102 19.6667 9.04102H17.1667Z" fill="#0097A0"/>
<rect x="0.5" y="0.5" width="35" height="35" stroke="#0097A0"/>
</svg>
