<svg width="28" height="28" viewBox="0 0 28 28" fill="none" xmlns="http://www.w3.org/2000/svg">
<path d="M8.15778 7.30873C8.35641 7.11336 9.028 6.60168 9.028 6.60168C9.14334 6.5088 9.27642 6.4396 9.4194 6.39814C9.56238 6.35668 9.71235 6.3438 9.86047 6.36028C10.0086 6.37676 10.1518 6.42225 10.2818 6.49407C10.4118 6.56589 10.5258 6.66258 10.6171 6.77844L12.1495 8.69494C12.3211 8.91398 12.4078 9.18601 12.3939 9.46222C12.38 9.73844 12.2665 10.0007 12.0738 10.2021L11.3454 10.9557C11.2434 11.0559 11.1731 11.183 11.1429 11.3217C11.1127 11.4603 11.1239 11.6046 11.1752 11.7371C11.4895 12.5661 11.9543 13.3321 12.5467 13.9979C13.2804 14.6787 14.0858 15.2806 14.9493 15.7934C15.1507 15.9071 15.3843 15.9531 15.6147 15.9246C15.8451 15.896 16.0598 15.7945 16.2263 15.6353L16.9073 14.9933C17.0789 14.81 17.3116 14.6933 17.5633 14.6643C17.8149 14.6352 18.0688 14.6959 18.2788 14.8352L20.2936 16.1563C20.4329 16.2483 20.5517 16.3672 20.6429 16.5058C20.7341 16.6443 20.7957 16.7997 20.824 16.9623C20.8523 17.125 20.8467 17.2917 20.8075 17.4521C20.7684 17.6126 20.6965 17.7636 20.5963 17.896L20.2369 18.3798C19.8828 18.846 19.3746 19.1762 18.7997 19.3138C18.2249 19.4513 17.6192 19.3875 17.087 19.1333C15.0814 18.2592 13.2445 17.0506 11.6576 15.5608C10.4109 14.1563 9.3201 12.625 8.40371 10.9929L7.64699 9.39269C7.51838 9.11818 7.47145 8.81346 7.51163 8.51381C7.5518 8.21415 7.67744 7.93181 7.87401 7.69948C7.95739 7.5617 8.05231 7.431 8.15778 7.30873ZM19.5085 12.3977V12.0163C19.5086 10.7906 19.0168 9.61438 18.14 8.74334C17.2633 7.8723 16.0725 7.37681 14.8263 7.36455H14.6182C14.5538 7.36926 14.4936 7.39779 14.4498 7.44439C14.4059 7.491 14.3816 7.55223 14.3818 7.61575C14.3829 7.64835 14.3908 7.68038 14.4049 7.70992C14.419 7.73945 14.439 7.76588 14.4637 7.7876C14.4885 7.80933 14.5174 7.82591 14.5489 7.83635C14.5803 7.84678 14.6135 7.85086 14.6466 7.84833H14.8263C15.9369 7.85079 17.0013 8.28579 17.7866 9.05818C18.5719 9.83056 19.0142 10.8774 19.0166 11.9697V12.314C19.0141 12.3457 19.0179 12.3777 19.0279 12.408C19.038 12.4384 19.054 12.4664 19.0751 12.4906C19.0962 12.5149 19.1219 12.5347 19.1509 12.5491C19.1798 12.5635 19.2113 12.5721 19.2437 12.5745C19.2989 12.5764 19.3532 12.5601 19.3978 12.528C19.4424 12.496 19.4748 12.45 19.4896 12.3977H19.5085ZM17.7208 11.8488C17.7299 11.7435 17.7299 11.6377 17.7208 11.5325C17.7183 10.8769 17.4524 10.2489 16.9811 9.7853C16.5098 9.32174 15.8712 9.06022 15.2047 9.05777H15.0439C14.9787 9.06695 14.9194 9.09967 14.8774 9.14955C14.8354 9.19943 14.8139 9.26289 14.8169 9.32757C14.8204 9.35942 14.8303 9.39026 14.846 9.41831C14.8618 9.44636 14.883 9.47106 14.9085 9.49096C14.9341 9.51087 14.9634 9.52559 14.9947 9.53428C15.0261 9.54296 15.0589 9.54543 15.0912 9.54155H15.2047C15.4701 9.54154 15.7328 9.59311 15.9779 9.69327C16.223 9.79344 16.4455 9.94024 16.6327 10.1252C16.8199 10.3102 16.9681 10.5298 17.0688 10.7713C17.1695 11.0128 17.2207 11.2715 17.2194 11.5325C17.2242 11.6161 17.2242 11.7 17.2194 11.7837C17.2141 11.8155 17.2152 11.848 17.2228 11.8794C17.2304 11.9108 17.2444 11.9403 17.2637 11.9663C17.2831 11.9923 17.3076 12.0142 17.3357 12.0308C17.3639 12.0474 17.3951 12.0582 17.4275 12.0628C17.4599 12.0667 17.4927 12.0642 17.524 12.0555C17.5554 12.0468 17.5847 12.0321 17.6102 12.0122C17.6357 11.9923 17.6569 11.9676 17.6727 11.9395C17.6884 11.9115 17.6983 11.8806 17.7019 11.8488H17.7208ZM21.1165 12.9187V12.2116C21.1093 10.4797 20.4118 8.81967 19.1737 7.58808C17.9357 6.35649 16.2559 5.6516 14.4953 5.62482H14.1169C14.085 5.62597 14.0537 5.63347 14.0248 5.64686C13.9959 5.66025 13.9701 5.67925 13.9489 5.70273C13.9276 5.7262 13.9115 5.75365 13.9014 5.78343C13.8912 5.81322 13.8873 5.84471 13.8899 5.87601C13.8947 5.93936 13.9237 5.99856 13.9711 6.04172C14.0185 6.08487 14.0807 6.10877 14.1453 6.1086H14.4953C16.1443 6.10859 17.726 6.75227 18.893 7.89829C20.0599 9.04431 20.7168 10.599 20.7193 12.2209V12.8815C20.7153 12.9128 20.7179 12.9445 20.7268 12.9748C20.7358 13.0051 20.7509 13.0333 20.7712 13.0576C20.7916 13.082 20.8167 13.102 20.8452 13.1165C20.8737 13.131 20.9048 13.1397 20.9368 13.142C20.9862 13.127 21.0299 13.0977 21.062 13.0578C21.094 13.0179 21.1131 12.9694 21.1165 12.9187ZM17.6735 11.8488C17.6826 11.7435 17.6826 11.6377 17.6735 11.5325C17.671 10.8769 17.4051 10.2489 16.9338 9.7853C16.4625 9.32174 15.8239 9.06022 15.1574 9.05777H14.9966C14.9314 9.06695 14.8721 9.09967 14.8301 9.14955C14.7881 9.19943 14.7666 9.26289 14.7696 9.32757C14.7731 9.35942 14.783 9.39026 14.7987 9.41831C14.8145 9.44636 14.8357 9.47106 14.8613 9.49096C14.8868 9.51087 14.9161 9.52559 14.9474 9.53428C14.9788 9.54296 15.0116 9.54543 15.0439 9.54155H15.1574C15.4228 9.54154 15.6855 9.59311 15.9306 9.69327C16.1757 9.79344 16.3982 9.94024 16.5854 10.1252C16.7726 10.3102 16.9208 10.5298 17.0215 10.7713C17.1222 11.0128 17.1734 11.2715 17.1722 11.5325C17.1769 11.6161 17.1769 11.7 17.1722 11.7837C17.1668 11.8155 17.1679 11.848 17.1755 11.8794C17.1831 11.9108 17.1971 11.9403 17.2164 11.9663C17.2358 11.9923 17.2603 12.0142 17.2884 12.0308C17.3166 12.0474 17.3478 12.0582 17.3802 12.0628C17.4159 12.0742 17.4537 12.0774 17.4907 12.0723C17.5278 12.0672 17.5632 12.0538 17.5943 12.0331C17.6253 12.0125 17.6511 11.9852 17.6697 11.9532C17.6884 11.9213 17.6994 11.8855 17.7019 11.8488H17.6735ZM26.9716 10.1184L26.877 15.5608C26.877 20.4916 22.3178 23.8036 17.3046 23.8036H12.4238L9.90768 26.6505C9.76123 26.8087 9.56992 26.92 9.35847 26.9702C9.14703 27.0203 8.92514 27.007 8.72148 26.9319C8.51782 26.8568 8.34173 26.7233 8.21595 26.5488C8.09018 26.3742 8.02049 26.1666 8.01589 25.9527V23.1617C6.2678 22.5313 4.75609 21.3926 3.68156 19.8971C2.60704 18.4015 2.02055 16.6198 2 14.7887V10.2765C2 5.11313 5.03632 1.34526 11.4022 1.02894C12.7359 0.96382 16.756 1.02894 16.756 1.02894C23.3961 0.973124 27 4.741 27 10.1184H26.9716ZM25.1366 10.5277C25.0798 5.51318 22.0624 2.8338 16.3871 2.8338H11.8468C6.41733 3.0943 3.92963 6.31327 3.92963 10.5928V14.3979C3.87122 15.932 4.31475 17.444 5.19501 18.7117C6.07528 19.9794 7.34584 20.9359 8.8199 21.4406V25.9713C8.81778 26.0144 8.8295 26.0569 8.85341 26.093C8.87731 26.1291 8.91218 26.1568 8.95305 26.1723C8.99392 26.1878 9.0387 26.1901 9.08103 26.1791C9.12336 26.1681 9.16107 26.1442 9.1888 26.1109L11.2509 23.7664L12.9535 21.8313H16.9357C21.5422 21.8313 25.0987 19.0403 25.0987 14.9933L25.1366 10.5277Z" fill="#4F4F4F"/>
</svg>
