<svg width="28" height="28" viewBox="0 0 28 28" fill="none" xmlns="http://www.w3.org/2000/svg">
<path d="M20.3359 17.0125C20.0847 16.8876 18.4521 16.1386 18.2009 16.0137C17.9497 15.8889 17.6986 15.8889 17.4474 16.1386C17.1962 16.3883 16.6939 17.1373 16.4427 17.387C16.3171 17.6367 16.0659 17.6367 15.8147 17.5119C14.9356 17.1373 14.0565 16.638 13.303 16.0137C12.675 15.3895 12.0471 14.6404 11.5447 13.8914C11.4191 13.6417 11.5447 13.392 11.6703 13.2672C11.7959 13.1423 11.9215 12.8926 12.1727 12.7678C12.2983 12.6429 12.4238 12.3933 12.4238 12.2684C12.5494 12.1436 12.5494 11.8939 12.4238 11.769C12.2983 11.6442 11.6703 10.1461 11.4191 9.52185C11.2935 8.64794 11.0424 8.64794 10.7912 8.64794H10.1632C9.91207 8.64794 9.53531 8.89763 9.40972 9.02247C8.65619 9.77154 8.27942 10.6454 8.27942 11.6442C8.40501 12.7678 8.78178 13.8914 9.53531 14.8901C10.9168 16.8876 12.675 18.5106 14.81 19.5094C15.438 19.7591 15.9403 20.0087 16.5683 20.1336C17.1962 20.3833 17.8241 20.3833 18.5777 20.2584C19.4568 20.1336 20.2103 19.5094 20.7127 18.7603C20.9639 18.2609 20.9639 17.7615 20.8383 17.2622L20.3359 17.0125ZM23.4756 5.65169C18.5777 0.782772 10.6656 0.782772 5.76765 5.65169C1.74882 9.64669 0.995292 15.764 3.75824 20.633L2 27L8.65619 25.2522C10.54 26.2509 12.5494 26.7503 14.5588 26.7503C21.4662 26.7503 26.9921 21.2572 26.9921 14.3908C27.1177 11.1448 25.7362 8.02372 23.4756 5.65169ZM20.0847 23.1298C18.4521 24.1286 16.5683 24.7528 14.5588 24.7528C12.675 24.7528 10.9168 24.2534 9.28413 23.3795L8.90737 23.1298L5.01412 24.1286L6.01883 20.3833L5.76765 20.0087C2.75353 15.015 4.26059 8.77278 9.15854 5.65169C14.0565 2.53059 20.3359 4.15356 23.35 8.89763C26.3642 13.7665 24.9827 20.1336 20.0847 23.1298Z" fill="#4F4F4F"/>
</svg>
