<svg width="36" height="36" viewBox="0 0 36 36" fill="none" xmlns="http://www.w3.org/2000/svg">
<path d="M27.1667 16.0919C27.2079 14.8991 26.947 13.7152 26.4083 12.6502C26.0428 12.2132 25.5356 11.9183 24.975 11.8169C22.6563 11.6065 20.3279 11.5203 18 11.5586C15.6805 11.5185 13.3606 11.602 11.05 11.8086C10.5932 11.8917 10.1704 12.1059 9.83334 12.4252C9.08334 13.1169 9 14.3002 8.91667 15.3002C8.79576 17.0982 8.79576 18.9023 8.91667 20.7002C8.94078 21.2631 9.02458 21.8218 9.16667 22.3669C9.26715 22.7878 9.47044 23.1772 9.75834 23.5002C10.0977 23.8364 10.5303 24.0629 11 24.1502C12.7966 24.372 14.6069 24.4639 16.4167 24.4252C19.3333 24.4669 21.8917 24.4252 24.9167 24.1919C25.3979 24.1099 25.8427 23.8832 26.1917 23.5419C26.425 23.3085 26.5992 23.0228 26.7 22.7086C26.998 21.7941 27.1444 20.837 27.1333 19.8752C27.1667 19.4086 27.1667 16.5919 27.1667 16.0919ZM16.1167 20.3752V15.2169L21.05 17.8086C19.6667 18.5752 17.8417 19.4419 16.1167 20.3752Z" fill="#0097A0"/>
<rect x="0.5" y="0.5" width="35" height="35" stroke="#0097A0"/>
</svg>
