<svg width="20" height="20" viewBox="0 0 20 20" fill="none" xmlns="http://www.w3.org/2000/svg">
<path d="M9.16669 1.04297C8.82152 1.04297 8.54169 1.32279 8.54169 1.66797V13.3346C8.54169 14.3701 7.70222 15.2096 6.66669 15.2096C5.63115 15.2096 4.79169 14.3701 4.79169 13.3346C4.79169 12.2991 5.63115 11.4596 6.66669 11.4596C7.01186 11.4596 7.29169 11.1798 7.29169 10.8346V8.33464C7.29169 7.98946 7.01186 7.70964 6.66669 7.70964C3.56009 7.70964 1.04169 10.2281 1.04169 13.3346C1.04169 16.4412 3.56009 18.9596 6.66669 18.9596C9.77327 18.9596 12.2917 16.4412 12.2917 13.3346V8.51555C13.5546 9.32397 15.0563 9.79297 16.6667 9.79297C17.0119 9.79297 17.2917 9.51313 17.2917 9.16797V6.66797C17.2917 6.32279 17.0119 6.04297 16.6667 6.04297C14.2504 6.04297 12.2917 4.08422 12.2917 1.66797C12.2917 1.32279 12.0119 1.04297 11.6667 1.04297H9.16669Z" fill="white"/>
</svg>
